<svg width="77" height="77" viewBox="0 0 77 77" fill="none" xmlns="http://www.w3.org/2000/svg">
<g clip-path="url(#clip0_102_2245)">
<path d="M47.8702 70.0975C51.8629 70.0975 55.2891 69.8879 58.1516 69.2516C61.0508 68.6073 63.5638 67.4842 65.5239 65.524C67.4841 63.5638 68.6073 61.0508 69.2515 58.1517C69.8878 55.2891 70.0975 51.863 70.0975 47.8703V38.235C70.0975 34.7155 67.2445 31.8625 63.725 31.8625H38.235C34.7155 31.8625 31.8625 34.7155 31.8625 38.235V63.725C31.8625 67.2446 34.7155 70.0975 38.235 70.0975H47.8702Z" fill="#FF6624"/>
<path d="M6.3725 47.8703C6.3725 51.863 6.58228 55.2891 7.21851 58.1517C7.86277 61.0508 8.98589 63.5638 10.9461 65.524C12.9064 67.4842 15.4193 68.6073 18.3182 69.2516C18.5958 69.3131 18.8749 69.3711 19.155 69.4252C22.6105 70.0928 25.49 67.1681 25.49 63.6486V38.235C25.49 34.7155 22.6369 31.8625 19.1175 31.8625H12.745C9.22556 31.8625 6.3725 34.7155 6.3725 38.235V47.8703Z" fill="#FF6624"/>
<path d="M28.5997 6.37256C24.6069 6.37256 21.1809 6.58234 18.3181 7.21857C15.4192 7.86283 12.9063 8.98595 10.9461 10.9462C8.98581 12.9064 7.86269 15.4194 7.21843 18.3183C7.16554 18.5563 7.11577 18.7951 7.06903 19.0347C6.38596 22.5354 9.36408 25.4901 12.9308 25.4901H63.6485C67.1681 25.4901 70.0927 22.6106 69.4252 19.1551C69.371 18.8749 69.3131 18.5959 69.2516 18.3183C68.607 15.4194 67.4841 12.9064 65.5237 10.9462C63.5635 8.98595 61.0505 7.86283 58.1516 7.21857C55.2888 6.58234 51.8629 6.37256 47.8702 6.37256H28.5997Z" fill="#FF6624"/>
</g>
<defs>
<clipPath id="clip0_102_2245">
<rect width="76.47" height="76.47" fill="white"/>
</clipPath>
</defs>
</svg>
