<svg width="40" height="40" viewBox="0 0 40 40" fill="none" xmlns="http://www.w3.org/2000/svg">
<path d="M37.5 20C37.5 15.3587 35.6562 10.9075 32.3743 7.62564C29.0924 4.34375 24.6412 2.50001 20 2.50001C15.5933 2.49594 11.3474 4.15449 8.1102 7.14435C4.87304 10.1342 2.88302 14.2353 2.53763 18.6284C2.19225 23.0215 3.51693 27.3831 6.24707 30.8422C8.97721 34.3012 12.9118 36.6029 17.265 37.2875V25.0575H12.825V20H17.2675V16.145C17.2675 11.76 19.88 9.33501 23.8775 9.33501C25.7925 9.33501 27.795 9.67751 27.795 9.67751V13.985H25.5875C23.4125 13.985 22.7375 15.335 22.7375 16.7175V20H27.59L26.815 25.0575H22.735V37.2875C26.8512 36.6357 30.5998 34.5364 33.3064 31.3674C36.0131 28.1984 37.5001 24.1676 37.5 20Z" fill="#1877F2"/>
<path d="M26.8125 25.0575L27.5875 20H22.735V16.7175C22.735 15.335 23.41 13.985 25.585 13.985H27.7924V9.675C27.7924 9.675 25.79 9.3325 23.875 9.3325C19.875 9.3325 17.265 11.7575 17.265 16.1425V20H12.825V25.0575H17.2675V37.2875C19.0796 37.5727 20.9253 37.5727 22.7375 37.2875V25.0575H26.8125Z" fill="white"/>
</svg>
