<svg width="29" height="29" viewBox="0 0 29 29" fill="none" xmlns="http://www.w3.org/2000/svg">
<path d="M22.9389 16.385C22.9099 16.269 22.9099 16.124 22.9969 16.037C23.4899 15.138 23.7799 14.123 23.7799 13.05C23.7799 9.68596 20.9089 6.95996 17.3999 6.95996C15.8919 6.95996 14.4999 7.48196 13.3979 8.32296C17.0229 9.10596 19.7199 12.238 19.7199 15.95C19.7199 16.994 19.5169 18.009 19.1109 18.908C19.6909 18.763 20.2419 18.531 20.7639 18.212C20.8799 18.154 20.9959 18.125 21.1119 18.183L22.9679 18.85C23.2869 18.966 23.6059 18.647 23.5189 18.299L22.9389 16.385Z" fill="#606060"/>
<path d="M11.6 9.85986C8.09097 9.85986 5.21997 12.5859 5.21997 15.9499C5.21997 17.0229 5.50997 18.0379 6.03197 18.9369C6.08997 19.0529 6.11897 19.1689 6.08997 19.2849L5.48097 21.2279C5.36497 21.5759 5.68397 21.8949 6.03197 21.7789L7.88797 21.1119C8.00397 21.0829 8.14897 21.0829 8.23597 21.1409C9.22197 21.7209 10.353 22.0399 11.6 22.0399C15.109 22.0399 17.98 19.3139 17.98 15.9499C17.98 12.5859 15.109 9.85986 11.6 9.85986ZM8.11997 17.1099C7.48197 17.1099 6.95997 16.5879 6.95997 15.9499C6.95997 15.3119 7.48197 14.7899 8.11997 14.7899C8.75797 14.7899 9.27997 15.3119 9.27997 15.9499C9.27997 16.5879 8.75797 17.1099 8.11997 17.1099ZM11.6 17.1099C10.962 17.1099 10.44 16.5879 10.44 15.9499C10.44 15.3119 10.962 14.7899 11.6 14.7899C12.238 14.7899 12.76 15.3119 12.76 15.9499C12.76 16.5879 12.238 17.1099 11.6 17.1099ZM15.08 17.1099C14.442 17.1099 13.92 16.5879 13.92 15.9499C13.92 15.3119 14.442 14.7899 15.08 14.7899C15.718 14.7899 16.24 15.3119 16.24 15.9499C16.24 16.5879 15.718 17.1099 15.08 17.1099Z" fill="#606060"/>
</svg>
