<svg width="22" height="22" viewBox="0 0 22 22" fill="none" xmlns="http://www.w3.org/2000/svg">
<g clip-path="url(#clip0_110_708)">
<path d="M17.4167 2.75H4.58333C3.3682 2.75146 2.20326 3.23481 1.34403 4.09403C0.484808 4.95326 0.00145554 6.1182 0 7.33333H22C21.9985 6.1182 21.5152 4.95326 20.656 4.09403C19.7967 3.23481 18.6318 2.75146 17.4167 2.75Z" fill="#606060"/>
<path d="M0 14.6665C0.00145554 15.8816 0.484808 17.0466 1.34403 17.9058C2.20326 18.765 3.3682 19.2484 4.58333 19.2498H17.4167C18.6318 19.2484 19.7967 18.765 20.656 17.9058C21.5152 17.0466 21.9985 15.8816 22 14.6665V9.1665H0V14.6665ZM6.41667 14.2082C6.41667 14.4801 6.33602 14.746 6.18494 14.9721C6.03385 15.1982 5.81911 15.3744 5.56786 15.4785C5.31661 15.5826 5.04014 15.6098 4.77342 15.5567C4.50669 15.5037 4.26169 15.3727 4.06939 15.1804C3.8771 14.9881 3.74614 14.7431 3.69309 14.4764C3.64003 14.2097 3.66726 13.9332 3.77133 13.682C3.8754 13.4307 4.05164 13.216 4.27776 13.0649C4.50388 12.9138 4.76972 12.8332 5.04167 12.8332C5.40634 12.8332 5.75608 12.978 6.01394 13.2359C6.2718 13.4938 6.41667 13.8435 6.41667 14.2082Z" fill="#606060"/>
</g>
<defs>
<clipPath id="clip0_110_708">
<rect width="22" height="22" fill="white"/>
</clipPath>
</defs>
</svg>
