<svg width="22" height="22" viewBox="0 0 22 22" fill="none" xmlns="http://www.w3.org/2000/svg">
<g clip-path="url(#clip0_110_712)">
<path d="M17.4167 0H4.58333C3.36776 0 2.20197 0.482886 1.34243 1.34243C0.482885 2.20197 0 3.36776 0 4.58333H0C0 5.31268 0.289731 6.01215 0.805456 6.52788C1.32118 7.0436 2.02065 7.33333 2.75 7.33333H19.25C19.9472 7.34185 20.621 7.08257 21.1327 6.60896C21.6443 6.13534 21.9547 5.48348 22 4.78775C22.027 4.16904 21.9284 3.55127 21.7102 2.97167C21.4921 2.39208 21.1588 1.86265 20.7306 1.41529C20.3023 0.967934 19.7879 0.611912 19.2184 0.368677C18.6488 0.125442 18.036 3.09456e-05 17.4167 0V0Z" fill="#606060"/>
<path d="M20.1665 9.1665H1.83317C1.59006 9.1665 1.3569 9.26308 1.18499 9.43499C1.01308 9.6069 0.916504 9.84006 0.916504 10.0832V17.4165C0.917959 18.6316 1.40131 19.7966 2.26054 20.6558C3.11977 21.515 4.28471 21.9984 5.49984 21.9998H16.4998C17.715 21.9984 18.8799 21.515 19.7391 20.6558C20.5984 19.7966 21.0817 18.6316 21.0832 17.4165V10.0832C21.0832 9.84006 20.9866 9.6069 20.8147 9.43499C20.6428 9.26308 20.4096 9.1665 20.1665 9.1665ZM13.7498 13.7498H8.24984C8.00672 13.7498 7.77357 13.6533 7.60166 13.4814C7.42975 13.3094 7.33317 13.0763 7.33317 12.8332C7.33317 12.5901 7.42975 12.3569 7.60166 12.185C7.77357 12.0131 8.00672 11.9165 8.24984 11.9165H13.7498C13.993 11.9165 14.2261 12.0131 14.398 12.185C14.5699 12.3569 14.6665 12.5901 14.6665 12.8332C14.6665 13.0763 14.5699 13.3094 14.398 13.4814C14.2261 13.6533 13.993 13.7498 13.7498 13.7498Z" fill="#606060"/>
</g>
<defs>
<clipPath id="clip0_110_712">
<rect width="22" height="22" fill="white"/>
</clipPath>
</defs>
</svg>
