<svg width="26" height="26" viewBox="0 0 26 26" fill="none" xmlns="http://www.w3.org/2000/svg">
<g clip-path="url(#clip0_110_839)">
<path d="M7.79167 0.5H4.66667C2.36548 0.5 0.5 2.36548 0.5 4.66667V7.79167C0.5 10.0929 2.36548 11.9583 4.66667 11.9583H7.79167C10.0929 11.9583 11.9583 10.0929 11.9583 7.79167V4.66667C11.9583 2.36548 10.0929 0.5 7.79167 0.5Z" fill="#606060"/>
<path d="M21.3332 0.5H18.2082C15.907 0.5 14.0415 2.36548 14.0415 4.66667V7.79167C14.0415 10.0929 15.907 11.9583 18.2082 11.9583H21.3332C23.6343 11.9583 25.4998 10.0929 25.4998 7.79167V4.66667C25.4998 2.36548 23.6343 0.5 21.3332 0.5Z" fill="#606060"/>
<path d="M7.79167 14.0417H4.66667C2.36548 14.0417 0.5 15.9072 0.5 18.2084V21.3334C0.5 23.6346 2.36548 25.5001 4.66667 25.5001H7.79167C10.0929 25.5001 11.9583 23.6346 11.9583 21.3334V18.2084C11.9583 15.9072 10.0929 14.0417 7.79167 14.0417Z" fill="#606060"/>
<path d="M21.3332 14.0417H18.2082C15.907 14.0417 14.0415 15.9072 14.0415 18.2084V21.3334C14.0415 23.6346 15.907 25.5001 18.2082 25.5001H21.3332C23.6343 25.5001 25.4998 23.6346 25.4998 21.3334V18.2084C25.4998 15.9072 23.6343 14.0417 21.3332 14.0417Z" fill="#606060"/>
</g>
<defs>
<clipPath id="clip0_110_839">
<rect width="25" height="25" fill="white" transform="translate(0.5 0.5)"/>
</clipPath>
</defs>
</svg>
