<svg width="40" height="40" viewBox="0 0 40 40" fill="none" xmlns="http://www.w3.org/2000/svg">
<path d="M37.5018 20.3886C37.5018 18.9498 37.3826 17.8998 37.1248 16.8109H20.3589V23.3053H30.2001C30.0018 24.9193 28.9303 27.3498 26.5493 28.983L26.5159 29.2005L31.817 33.225L32.1843 33.2609C35.5573 30.2081 37.5018 25.7164 37.5018 20.3886Z" fill="#4285F4"/>
<path d="M20.3579 37.4998C25.1793 37.4998 29.2268 35.9441 32.1833 33.2608L26.5483 28.9829C25.0404 30.0135 23.0165 30.7329 20.3579 30.7329C15.6358 30.7329 11.6278 27.6801 10.1991 23.4608L9.98971 23.4781L4.4776 27.6588L4.40552 27.8551C7.34199 33.5718 13.3738 37.4998 20.3579 37.4998Z" fill="#34A853"/>
<path d="M10.1995 23.4613C9.82257 22.3724 9.6044 21.2056 9.6044 20.0001C9.6044 18.7945 9.82257 17.6279 10.1797 16.539L10.1697 16.307L4.58853 12.0593L4.40593 12.1445C3.19567 14.5168 2.50122 17.1806 2.50122 20.0001C2.50122 22.8195 3.19567 25.4834 4.40593 27.8556L10.1995 23.4613Z" fill="#FBBC05"/>
<path d="M20.358 9.26662C23.7111 9.26662 25.973 10.6861 27.2628 11.8722L32.3024 7.05C29.2073 4.23056 25.1794 2.5 20.358 2.5C13.3738 2.5 7.34201 6.42775 4.40552 12.1444L10.1793 16.5389C11.6279 12.3194 15.6358 9.26662 20.358 9.26662Z" fill="#EB4335"/>
</svg>
