<svg width="679" height="138" viewBox="0 0 679 138" fill="none" xmlns="http://www.w3.org/2000/svg">
<path d="M5.47363 41.8738C33.4146 41.8738 94.1197 28.579 122.521 9.44574C150.922 -9.68748 198.871 87.7976 231.868 87.7976C264.865 87.7976 288.809 87.7976 318.883 87.7976C348.957 87.7976 418.258 61.5623 455.181 61.5623C492.104 61.5623 530.701 66.7116 566.068 66.7116C601.435 66.7116 643.868 14.0783 676.955 14.0783" stroke="#007DD6" stroke-width="2" stroke-linecap="round"/>
<path fill-rule="evenodd" clip-rule="evenodd" d="M5.5472 41.8738C33.4851 41.8738 94.1835 28.579 122.582 9.44574C150.98 -9.68749 195.843 87.7976 228.837 87.7976C261.83 87.7976 291.072 87.7976 321.143 87.7976C351.213 87.7976 401.003 62.5484 437.922 62.5484C474.841 62.5484 546.584 71.9918 582.072 62.5484C617.559 53.105 643.872 14.0783 676.955 14.0783C676.74 22.3972 676.955 138 676.955 138L5.5472 136.842C5.5472 136.842 5.40007 51.4192 5.5472 41.8738Z" fill="url(#paint0_linear_110_1098)"/>
<ellipse cx="672.142" cy="12.8708" rx="6.85859" ry="5.91336" fill="#0095FF"/>
<ellipse cx="583.457" cy="61.5128" rx="6.85859" ry="5.91336" fill="#0095FF"/>
<ellipse cx="439.307" cy="61.5128" rx="6.85859" ry="5.91336" fill="#0095FF"/>
<ellipse cx="322.528" cy="86.9921" rx="6.85859" ry="5.91336" fill="#0095FF"/>
<ellipse cx="227.644" cy="86.9921" rx="6.85859" ry="5.91336" fill="#0095FF"/>
<ellipse cx="132.761" cy="5.9219" rx="6.85859" ry="5.91336" fill="#0095FF"/>
<ellipse cx="6.85859" cy="40.6663" rx="6.85859" ry="5.91336" fill="#0095FF"/>
<defs>
<linearGradient id="paint0_linear_110_1098" x1="5.47363" y1="6.9574" x2="5.47363" y2="138" gradientUnits="userSpaceOnUse">
<stop stop-color="#009DFF" stop-opacity="0.31728"/>
<stop offset="1" stop-color="#0095FF" stop-opacity="0.01"/>
</linearGradient>
</defs>
</svg>
