<svg width="685" height="212" viewBox="0 0 685 212" fill="none" xmlns="http://www.w3.org/2000/svg">
<path d="M5.48926 28.6047C48.4958 37.8266 83.3021 61.6102 131.748 61.6102C180.193 61.6102 195.785 43.7725 226.899 43.7725C258.013 43.7725 278.922 79.4479 322.05 79.4479C365.178 79.4479 395.851 37.8266 439.16 37.8266C482.468 37.8266 542.335 103.231 583.716 103.231C625.098 103.231 678.868 2.28491 678.868 2.28491" stroke="#05C283" stroke-width="2" stroke-linecap="round"/>
<path fill-rule="evenodd" clip-rule="evenodd" d="M5.48872 28.6047C48.4953 37.8266 83.3016 61.6102 131.747 61.6102C180.193 61.6102 195.784 43.7725 226.898 43.7725C258.013 43.7725 278.922 79.4479 322.05 79.4479C365.178 79.4479 395.85 37.8266 439.159 37.8266C482.468 37.8266 542.334 103.231 583.716 103.231C625.097 103.231 678.867 2.28491 678.867 2.28491V211.249H5.48872C5.48872 211.249 5.20171 38.5999 5.48872 28.6047Z" fill="url(#paint0_linear_110_1088)"/>
<ellipse cx="677.479" cy="5.05985" rx="6.87796" ry="5.05985" fill="#07E098"/>
<ellipse cx="585.105" cy="102.345" rx="6.87796" ry="5.05985" fill="#07E098"/>
<ellipse cx="440.548" cy="36.9403" rx="6.87796" ry="5.05985" fill="#07E098"/>
<ellipse cx="323.439" cy="78.5618" rx="6.87796" ry="5.05985" fill="#07E098"/>
<ellipse cx="228.287" cy="42.8864" rx="6.87796" ry="5.05985" fill="#07E098"/>
<ellipse cx="133.136" cy="60.7242" rx="6.87796" ry="5.05985" fill="#07E098"/>
<ellipse cx="6.87796" cy="27.0306" rx="6.87796" ry="5.05985" fill="#07E098"/>
<defs>
<linearGradient id="paint0_linear_110_1088" x1="5.34521" y1="2.28491" x2="5.34521" y2="211.249" gradientUnits="userSpaceOnUse">
<stop stop-color="#00E096" stop-opacity="0.326568"/>
<stop offset="1" stop-color="white" stop-opacity="0.01"/>
</linearGradient>
</defs>
</svg>
