<svg width="49" height="33" viewBox="0 0 49 33" fill="none" xmlns="http://www.w3.org/2000/svg">
<path d="M48.3856 1.6608V31.4542C48.3856 32.3026 47.6881 33 46.8398 33H1.54569C0.697338 33 0 32.3026 0 31.4542V1.6608C0 0.812443 0.697338 0.122192 1.54569 0.122192H46.8398C47.6881 0.122192 48.3856 0.812443 48.3856 1.6608Z" fill="url(#paint0_linear_65_721)"/>
<g opacity="0.2">
<path d="M28.2916 9.88161C28.187 9.76395 28.1217 9.65943 27.991 9.71821C27.8603 9.77699 27.8603 9.86195 27.723 9.75743C27.5858 9.65291 27.6446 9.52864 27.3373 9.4176C27.0301 9.30646 26.9648 9.24116 26.6314 9.19542C26.2981 9.14968 26.0562 9.10394 26.0366 9.10394C26.017 9.10394 26.1085 9.16272 25.9778 9.22812C25.8471 9.29352 25.7425 9.30656 25.6118 9.2216C25.4811 9.13664 25.4876 9.11046 25.2654 9.13012C25.0432 9.14978 24.9125 9.20204 24.8145 9.21508C24.7165 9.22812 24.8145 9.20856 24.6641 9.10394C24.5138 8.99933 24.6184 8.94055 24.3569 8.96011C24.0955 8.97977 23.9844 8.99186 23.919 8.95633C23.8536 8.92089 23.932 8.73784 23.6771 8.6594C23.4223 8.58096 23.3699 8.63984 23.2392 8.62018C23.1085 8.60062 23.115 8.56792 22.7425 8.54174C22.37 8.51557 22.3895 8.57444 22.1346 8.65288C21.8798 8.73132 21.8144 8.73132 21.5791 8.71827C21.3438 8.70523 21.4026 8.84897 21.2588 8.86863C21.115 8.88819 20.8863 8.74445 20.8601 8.65949C20.8339 8.57454 21.0562 8.48306 20.8601 8.40462C20.664 8.32618 20.298 8.17583 20.2261 8.202C20.1542 8.22818 20.1934 8.34584 20.0627 8.37844C19.932 8.41114 19.7621 8.41114 19.5594 8.31966C19.3568 8.22818 19.2784 8.18292 19.0627 8.19898C18.8471 8.21505 18.7294 8.28044 18.5464 8.29348C18.3633 8.30653 18.2523 8.22809 18.3765 8.16931C18.5006 8.11053 18.6575 7.93399 18.6575 7.84904C18.6575 7.76408 18.749 7.58103 18.5398 7.56146C18.3307 7.5419 18.2915 7.68564 18.0954 7.56146C17.8993 7.43729 17.6444 7.43077 17.5725 7.46998C17.5006 7.5092 17.5006 7.5746 17.3764 7.59416C17.2522 7.61372 17.298 7.72486 17.1476 7.76408C16.9973 7.8033 17.0169 7.68564 16.6705 7.71834C16.324 7.75104 15.9907 7.79678 15.9058 7.89478C15.8208 7.99278 15.9254 8.10391 15.7424 8.18887C15.5593 8.27383 15.141 8.20843 15.0888 8.28035C15.0365 8.35226 15.3176 8.60062 15.128 8.71175C14.9384 8.82289 14.8208 8.63332 14.3829 8.71175C13.945 8.79019 13.9973 8.77715 13.834 8.87515C13.6706 8.97315 13.6379 8.90785 13.5399 9.04507C13.4419 9.18228 13.1477 9.30656 12.9451 9.30656C12.7425 9.30656 12.6575 9.18238 12.396 9.28699C12.1346 9.39161 12.1738 9.46343 11.762 9.43083C11.3502 9.39813 11.1803 9.40465 11.1019 9.45701C11.0235 9.50927 11.0235 9.64006 10.8208 9.69884C10.6182 9.75762 10.3045 9.86223 10.226 9.84267C10.1476 9.82311 9.87968 9.95381 9.69663 9.97337C9.51358 9.99303 9.40906 9.97989 9.35028 9.90797C9.2914 9.83606 9.2261 9.71188 9.31758 9.7511C9.40906 9.79032 9.48749 9.84258 9.65089 9.83606C9.81429 9.82954 9.99734 9.69884 9.95812 9.62692C9.9189 9.55501 9.9516 9.45048 9.63133 9.37205C9.31106 9.29361 9.17384 9.30665 8.932 9.13021C8.69017 8.95378 9.02348 8.83612 8.38956 8.90142C7.75554 8.96682 7.58562 9.03212 7.33074 9.22169C7.07587 9.41127 7.02352 9.57466 6.76212 9.80336C6.50072 10.0322 6.5922 10.0975 6.26541 10.2608C5.93862 10.4242 5.88636 10.3458 5.78827 10.5942C5.69017 10.8425 5.62487 11.1301 5.82748 11.1824C6.0301 11.2347 6.23923 11.1432 6.34385 11.104C6.44846 11.0648 6.5269 11.1367 6.53994 11.2544C6.55298 11.372 6.5595 11.5681 6.6903 11.5942C6.821 11.6204 7.09553 11.4373 7.08249 11.2478C7.06944 11.0583 7.0237 10.9276 7.1544 10.738C7.2851 10.5484 7.37006 10.4112 7.50737 10.3458C7.64459 10.2804 7.83416 10.1628 7.76225 10.3131C7.69033 10.4635 7.55963 10.6399 7.65111 10.7903C7.74259 10.9406 7.95172 10.836 8.00408 10.9863C8.05634 11.1367 7.93216 11.2804 7.89946 11.3328C7.86677 11.3851 7.9779 11.4505 7.82755 11.5551C7.67719 11.6596 7.57919 11.7707 7.4158 11.8949C7.2524 12.0191 6.76873 12.104 6.6576 12.078C6.54646 12.0518 6.36351 12.078 6.35037 11.9276C6.33733 11.7772 6.51377 11.6138 6.33081 11.5419C6.14776 11.47 5.94514 11.5681 5.88636 11.823C5.82748 12.0779 5.73601 12.1236 5.58575 12.2478C5.43539 12.372 5.55957 12.751 5.12174 12.8229C4.68381 12.8948 4.43545 12.7902 4.46815 12.9471C4.50085 13.104 4.77538 13.0059 4.7819 13.2674C4.78842 13.5288 4.85382 13.6203 4.66425 13.6726C4.47467 13.7249 4.42893 13.6269 4.17406 13.7118C3.91918 13.7968 3.93223 14.117 3.87997 14.2543C3.82771 14.3915 3.80153 14.5157 3.97144 14.5745C4.14136 14.6333 4.41589 14.7379 4.61851 14.653C4.82112 14.568 4.93878 14.555 4.96495 14.3981C4.99113 14.2412 5.05643 14.1432 5.19375 14.117C5.33097 14.0909 5.42254 13.934 5.50088 13.8425C5.57932 13.751 5.50088 13.7837 5.7035 13.7903C5.90611 13.7968 6.09568 13.5811 6.16751 13.6399C6.23942 13.6987 6.45508 13.823 6.5923 13.9536C6.72952 14.0843 6.91909 14.1236 6.88639 14.3197C6.85369 14.5158 6.84065 14.7431 6.97135 14.685C7.10205 14.6269 7.05631 14.4504 7.14127 14.3654C7.22622 14.2804 7.33736 14.3589 7.32432 14.2085C7.31128 14.0582 7.08901 14.019 6.97135 13.8817C6.85369 13.7445 6.76221 13.5942 6.90595 13.6399C7.04969 13.6856 7.32422 13.8098 7.3504 13.9144C7.37658 14.019 7.61841 14.2347 7.6445 14.4373C7.67067 14.6399 7.81441 14.823 7.87981 14.7184C7.9452 14.6138 7.88633 14.5353 8.03016 14.5092C8.1739 14.4831 8.12164 14.3785 8.20008 14.2412C8.27852 14.104 8.49417 14.3066 8.57261 14.0516C8.65105 13.7968 8.47461 13.709 8.67061 13.5699C8.8667 13.4308 8.95166 13.3393 9.01044 13.4635C9.06922 13.5876 9.21958 13.7183 9.29149 13.5876C9.36341 13.4569 9.1608 13.4177 9.33071 13.3196C9.50063 13.2216 9.65098 13.104 9.60525 13.2739C9.55951 13.4438 9.49411 13.5549 9.61177 13.6726C9.72942 13.7903 10.0758 13.8622 9.8863 13.9667C9.69672 14.0713 9.42229 14.0124 9.16732 14.1236C8.91244 14.2347 8.87322 14.1823 8.80783 14.3916C8.74243 14.6007 8.73591 14.6661 8.95157 14.6661C9.16722 14.6661 9.26532 14.5158 9.3241 14.7053C9.38288 14.8949 9.36984 15.3197 9.27836 15.3589C9.18688 15.3981 9.14766 15.3393 8.74243 15.3851C8.3372 15.4308 8.35676 15.5289 8.02997 15.3654C7.70318 15.202 7.62474 14.9994 7.50709 15.202C7.38943 15.4047 7.47439 15.5078 7.21951 15.4562C6.96464 15.4046 7.1476 15.2936 6.80777 15.2087C6.46793 15.1237 6.40254 15.1499 6.40254 14.9995C6.40254 14.8492 6.44828 14.6531 6.18026 14.6335C5.91225 14.6139 5.44172 14.725 5.05606 14.8361C4.67039 14.9473 4.74883 14.8099 4.30438 14.9668C3.85993 15.1237 3.5854 15.176 3.53966 15.4178C3.49392 15.6596 3.34357 15.7968 3.24557 15.9276C3.14757 16.0583 3.09521 16.6336 3.06913 16.9864C3.04295 17.3394 3.13453 17.176 3.03643 17.4374C2.93834 17.6989 3.21287 18.1107 3.324 18.2217C3.43514 18.3328 3.79463 18.6857 4.02333 18.7119C4.25212 18.7381 4.23246 18.6269 4.58543 18.6792C4.9384 18.7314 4.93188 18.5288 5.29137 18.6204C5.65086 18.7119 5.78156 18.7773 5.99069 18.8884C6.19983 18.9995 6.21948 19.091 6.21948 19.359C6.21948 19.627 6.23252 19.4244 6.4221 19.8035C6.61167 20.1825 6.94498 20.5355 6.74889 20.8623C6.5528 21.1891 6.46784 21.2479 6.59201 21.5551C6.71619 21.8623 7.06264 22.4832 7.10186 22.797C7.14108 23.1107 7.04308 23.1303 7.0823 23.3198C7.12152 23.5094 7.47448 23.7186 7.79475 23.5879C8.11503 23.4572 8.21303 23.4506 8.47452 23.2088C8.73591 22.967 8.9974 23.15 9.19349 22.6467C9.38959 22.1435 9.32419 22.0846 9.40915 21.882C9.49411 21.6794 10.004 21.3853 10.0235 21.0193C10.0431 20.6533 9.91238 20.3787 9.95812 20.0258C10.0039 19.6729 10.0366 19.3657 10.3764 19.0847C10.7162 18.8036 10.7947 19.0782 11.03 18.5488C11.2653 18.0194 11.5463 17.8887 11.2848 17.8952C11.0234 17.9017 10.5136 18.1108 10.298 17.9932C10.0823 17.8755 9.72933 17.3396 9.65741 17.0912C9.58549 16.8429 9.61167 16.9671 9.48749 16.6141C9.36332 16.2611 9.24566 16.0782 9.1934 15.9409C9.14114 15.8036 9.10844 15.5618 9.26532 15.7579C9.42219 15.954 9.57255 16.2481 9.78168 16.6991C9.99082 17.15 10.115 17.4965 10.298 17.5684C10.4811 17.6403 10.5399 17.7253 10.8144 17.6141C11.0889 17.503 11.1869 17.49 11.4484 17.3461C11.7098 17.2023 11.8667 17.1762 12.0563 16.9866C12.2458 16.7971 12.6772 16.7186 12.2001 16.5357C11.723 16.3527 11.5596 16.4572 11.4223 16.2481C11.2851 16.039 11.0629 15.8298 11.2655 15.8625C11.4681 15.8952 11.3897 15.954 11.6184 15.9997C11.8472 16.0455 12.0106 15.9425 12.1348 16.1083C12.259 16.2743 12.4681 16.3919 12.6642 16.3004C12.8603 16.2089 12.9387 16.1566 13.1479 16.2742C13.357 16.3918 13.2198 16.7251 13.5335 16.8166C13.8473 16.9081 13.8996 16.5683 13.965 16.9997C14.0304 17.4311 14.1545 17.8297 14.2656 17.9147C14.3767 17.9997 14.2068 18.3919 14.5597 18.2873C14.9126 18.1827 15.0172 18.1958 15.0172 17.8298C15.0172 17.4638 15.0041 17.3723 15.1936 17.2415C15.3832 17.1108 15.6446 16.9801 15.7622 16.8428C15.8799 16.7056 15.808 16.6205 16.0433 16.6467C16.2786 16.6729 16.8602 17.3265 16.8341 17.4637C16.8079 17.6009 16.7818 17.6533 16.8928 17.7382C17.004 17.8232 16.9975 17.8493 17.0824 18.1565C17.1674 18.4637 17.1478 18.4179 17.4157 18.7055C17.6837 18.9931 18.0628 19.1957 18.0301 18.9866C17.9974 18.7775 17.8667 18.8035 17.749 18.4702C17.6314 18.1369 17.4942 17.8362 17.651 17.9213C17.8079 18.0062 17.7622 18.1304 17.9256 18.1566C18.089 18.1828 18.1152 17.9932 18.2393 17.9343C18.3635 17.8755 18.5858 17.3984 18.4092 17.1892C18.2328 16.9801 18.0498 16.8363 18.2328 16.771C18.4159 16.7056 18.3308 16.7514 18.5466 16.7905C18.7622 16.8298 18.6969 16.7251 18.9583 16.6533C19.2197 16.5814 19.5989 16.4637 19.8015 16.2023C20.0041 15.941 20.2263 15.8625 20.1675 15.5161C20.1087 15.1697 20.0303 15.0194 19.9061 14.9278C19.7819 14.8363 19.7754 14.7709 19.8864 14.7317C19.9976 14.6925 20.2851 14.686 20.1217 14.601C19.9583 14.516 20.0368 14.5618 19.8472 14.516C19.6576 14.4703 19.455 14.5618 19.6249 14.4049C19.7948 14.248 19.9255 14.1173 19.9255 14.1173C19.9255 14.1173 19.8798 14.15 19.9909 14.2677C20.1021 14.3853 20.174 14.3331 20.2263 14.3069C20.2785 14.2807 20.4354 14.1697 20.455 14.2939C20.4747 14.418 20.2524 14.5095 20.3831 14.5553C20.5138 14.601 20.6315 14.4833 20.5792 14.7187C20.527 14.954 20.6315 15.1696 20.7426 15.052C20.8538 14.9343 21.0172 14.588 20.9845 14.4441C20.9518 14.3004 20.8406 14.3722 20.991 14.1108C21.1413 13.8494 21.1413 13.6664 21.3439 13.6991C21.5466 13.7318 21.7427 13.5357 21.8211 13.4572C21.8995 13.3788 22.2328 13.1957 22.2851 12.9736C22.3374 12.7513 22.3113 12.7187 22.3831 12.4637C22.455 12.2088 22.6119 12.2088 22.4158 12.0912C22.2197 11.9735 22.0693 11.9997 22.0367 11.8689C22.004 11.7382 22.5596 11.1042 22.8015 11.0062C23.0433 10.9082 23.2132 10.9539 23.3766 11.0258C23.54 11.0977 23.5923 11.1695 23.7426 11.078C23.893 10.9865 23.991 10.9342 24.0759 10.9277C24.1609 10.9211 24.3962 10.7446 24.4942 10.823C24.5922 10.9015 24.6053 10.9864 24.723 10.9342C24.8407 10.8819 24.9975 10.6074 25.0498 10.7054C25.102 10.8034 25.089 10.921 24.9452 11.1106C24.8013 11.3002 24.6772 11.3329 24.4942 11.4832C24.3111 11.6335 24.2393 11.7904 24.2393 11.9276C24.2393 12.0648 24.1871 12.5224 24.2589 12.5289C24.3308 12.5354 24.3504 12.5159 24.5399 12.274C24.7295 12.0322 24.8275 12.0192 24.9517 11.9276C25.0759 11.8361 25.1216 11.725 25.1413 11.5093C25.1609 11.2937 25.0236 11.2413 25.2262 11.1303C25.4288 11.0191 25.6707 10.9015 25.8733 10.9342C26.0759 10.9669 26.0302 10.9604 26.1805 10.81C26.3309 10.6597 26.4354 10.5617 26.5923 10.5747C26.7491 10.5877 27.004 10.6204 27.0432 10.542C27.0825 10.4636 27.0498 10.3983 27.0563 10.2871C27.0628 10.176 27.0498 10.1302 27.2001 10.091C27.3505 10.0518 27.3439 9.99955 27.4158 9.97337C27.4877 9.94719 27.5334 10.0256 27.6511 10.0714C27.7687 10.1171 28.0563 10.1236 28.1217 10.0387C28.187 9.95352 28.2916 9.88161 28.2916 9.88161Z" fill="#040000"/>
<path d="M22.5529 13.4372C22.6383 13.4687 22.8012 13.6006 22.8993 13.5941C22.9973 13.5876 23.0497 13.7183 22.9713 13.7313C22.8928 13.7443 22.6314 13.8685 22.6314 13.8685C22.6314 13.8685 22.553 13.7705 22.5072 13.8685C22.4615 13.9665 22.4353 14.0384 22.4485 14.0973C22.4615 14.1561 22.5531 14.3261 22.5007 14.4111C22.4485 14.496 22.3765 14.5418 22.3765 14.6464C22.3765 14.7509 22.4419 14.862 22.3504 14.9078C22.2589 14.9535 22.1673 14.9666 22.089 14.9927C22.0105 15.0189 21.9518 15.0254 21.9191 15.0973C21.8864 15.1693 21.8079 15.2738 21.6445 15.2673C21.4811 15.2607 21.4811 15.13 21.3308 15.2542C21.1804 15.3784 21.1739 15.4503 21.0955 15.4176C21.017 15.3849 21.0758 15.3392 21.0955 15.215C21.115 15.0908 20.8275 15.1235 21.0889 14.9797C21.3503 14.8358 21.3503 14.8163 21.5269 14.7901C21.7033 14.7639 21.8014 14.8489 21.8732 14.6986C21.9451 14.5483 21.8732 14.4895 22.0171 14.483C22.1609 14.4765 22.2524 14.5419 22.2785 14.3784C22.3046 14.215 22.285 14.0777 22.2785 13.9731C22.2719 13.8685 22.2327 13.7705 22.3504 13.7313C22.468 13.6921 22.4811 13.764 22.4942 13.6725C22.5072 13.5809 22.4287 13.3915 22.5529 13.4372Z" fill="#040000"/>
<path d="M19.9257 16.9796C20.0499 16.9993 20.1087 17.2215 20.0696 17.3129C20.0304 17.4044 19.9911 17.509 20.1023 17.5286C20.2134 17.5483 20.2919 17.5613 20.2919 17.6397C20.2919 17.7182 20.3376 17.5548 20.4226 17.7639C20.5075 17.9731 20.4291 18.0058 20.5272 18.1626C20.6252 18.3195 20.7428 18.3979 20.6056 18.4764C20.4684 18.5548 20.5729 18.6398 20.4292 18.594C20.2854 18.5483 20.3442 18.5744 20.2723 18.4372C20.2004 18.2999 20.1546 18.411 20.0893 18.4045C20.0239 18.3979 20.0044 18.3979 20.0566 18.3065C20.1089 18.215 20.1351 18.2215 20.0763 18.1169C20.0175 18.0123 20.109 17.8881 20.024 17.8685C19.9391 17.849 19.9129 17.9927 19.7626 18.0842C19.6123 18.1757 19.3901 18.2018 19.3966 18.1691C19.4031 18.1364 19.4881 18.0907 19.6254 17.9208C19.7626 17.7509 19.8477 17.8554 19.8215 17.594C19.7953 17.3326 19.7039 17.4044 19.7888 17.2215C19.8735 17.0385 19.9257 16.9796 19.9257 16.9796Z" fill="#040000"/>
<path d="M19.5076 18.4633C19.6065 18.5623 19.7364 18.5352 19.6971 18.6332C19.6579 18.7312 19.5415 18.7444 19.6062 18.8424C19.671 18.9405 19.7298 19.0842 19.8148 19.0712C19.8998 19.0581 19.8932 18.9927 20.1024 18.9927C20.3115 18.9927 20.4422 18.947 20.4553 19.032C20.4684 19.1169 20.3639 19.1234 20.2265 19.2476C20.0893 19.3718 19.952 19.496 20.0632 19.5744C20.1743 19.6528 20.22 19.7967 20.1808 19.8489C20.1416 19.9012 20.1024 19.9535 20.1939 20.0188C20.2853 20.0842 20.7233 20.0646 20.6186 20.2215C20.514 20.3783 20.2592 20.4633 19.9911 20.4698C19.7231 20.4763 19.9386 20.3979 19.3962 20.3456C18.8539 20.2934 18.7624 20.4306 18.3834 20.2476C18.0043 20.0646 17.7559 20.2215 17.5467 19.8881C17.3376 19.5548 17.4225 19.7182 17.1611 19.3718C16.8997 19.0254 17.0238 19.0254 16.8016 18.8881C16.5793 18.7509 16.3898 18.5548 16.5402 18.5548C16.6905 18.5548 16.6186 18.3784 17.0826 18.7639C17.5466 19.1495 17.4225 19.13 17.7624 19.3587C18.1022 19.5875 18.2133 19.6136 18.3375 19.5875C18.4617 19.5614 18.6448 19.5875 18.5271 19.4372C18.4094 19.2868 18.344 19.0973 18.4421 19.0646C18.5402 19.032 18.5336 19.1953 18.697 19.0189C18.8604 18.8425 18.8604 18.7966 19.0042 18.7379C19.1481 18.6791 19.0696 18.7379 19.2069 18.6529C19.3442 18.5679 19.3964 18.3522 19.5076 18.4633Z" fill="#040000"/>
<path d="M21.304 19.2215C21.3751 19.3129 21.4936 19.4307 21.5458 19.5288C21.5981 19.6268 21.6962 19.4458 21.8857 19.4513C22.0752 19.4568 22.3563 19.5614 22.4739 19.6137C22.5916 19.6661 22.7942 19.6987 22.9184 19.8686C23.0426 20.0385 23.134 19.9405 23.1407 20.1104C23.1472 20.2803 23.1734 20.2608 23.2844 20.3588C23.3955 20.4568 23.4151 20.6398 23.219 20.5614C23.0229 20.483 22.9641 20.215 22.755 20.2411C22.5459 20.2673 22.6308 20.3261 22.4674 20.3588C22.304 20.3915 22.2321 20.3326 22.036 20.3196C21.8399 20.3065 21.6962 20.3718 21.7877 20.1954C21.8791 20.0189 21.9445 20.0124 21.6243 19.8816C21.304 19.7509 21.1798 19.8162 21.1798 19.679C21.1798 19.5418 21.2321 19.5287 21.1079 19.411C20.9837 19.2933 20.9445 19.2084 21.0229 19.1495C21.1014 19.0907 21.2583 19.1626 21.304 19.2215Z" fill="#040000"/>
<path d="M21.6831 21.1038C21.8988 21.215 21.9837 21.4372 22.0884 21.3979C22.193 21.3587 22.1538 21.2933 22.2321 21.0581C22.3105 20.8228 22.3171 20.581 22.4152 20.6791C22.5132 20.7771 22.4217 20.9684 22.5785 21.0297C22.7354 21.0908 22.7681 21.1366 22.8008 21.3196C22.8335 21.5026 22.8662 21.4438 23.0296 21.6333C23.193 21.8229 23.3398 21.7902 23.3676 22.0059C23.3956 22.2215 23.6702 22.4438 23.6832 22.666C23.6962 22.8883 23.7355 23.045 23.5721 23.3261C23.4087 23.6071 23.3433 23.7509 23.291 23.8686C23.2387 23.9863 23.0819 24.0451 22.912 24.0451C22.742 24.0451 22.6439 23.9731 22.5394 23.9993C22.4348 24.0255 22.363 24.1562 22.2388 24.0647C22.1146 23.9732 22.0427 23.8556 22.0035 23.7837C21.9643 23.7118 21.9447 23.4699 21.7617 23.4961C21.5787 23.5223 21.6048 23.6138 21.4937 23.4961C21.3825 23.3784 21.461 23.2804 21.1342 23.2281C20.8074 23.1758 20.7224 23.1496 20.5851 23.1823C20.4479 23.215 20.304 23.2608 20.1537 23.3784C20.0033 23.4961 19.768 23.4373 19.6373 23.4961C19.5066 23.5549 19.3105 23.6857 19.1667 23.6072C19.0229 23.5288 19.0752 23.4896 19.0817 23.3066C19.0883 23.1236 19.0752 23.2478 18.9837 22.9341C18.8923 22.6203 18.9315 22.6661 18.8465 22.5158C18.7616 22.3655 18.6962 22.4374 18.8138 22.2217C18.9315 22.0061 18.8923 21.9603 18.9576 21.8884C19.023 21.8165 19.0817 21.9081 19.304 21.7577C19.5263 21.6074 19.5916 21.6728 19.7942 21.5943C19.9968 21.5159 20.0426 21.2153 20.1667 21.1237C20.2909 21.0322 20.3236 20.9603 20.4151 20.9603C20.5066 20.9603 20.6112 21.0126 20.7746 21.078C20.938 21.1433 20.9053 21.1499 21.0426 20.9995C21.1798 20.8492 21.0426 20.7054 21.2909 20.7315C21.5393 20.7577 21.6308 20.7185 21.6635 20.8622C21.6962 21.0058 21.6831 21.1038 21.6831 21.1038Z" fill="#040000"/>
<path d="M26.2187 24.1888C26.3494 24.0189 26.4148 23.9992 26.3691 23.8031C26.3233 23.607 26.3364 23.4533 26.5063 23.6282C26.6762 23.8031 26.8658 23.9012 26.9965 23.9077C27.1272 23.9143 27.4409 24.0124 27.1206 24.2542C26.8004 24.496 26.8592 24.3261 26.6043 24.6856C26.3494 25.0451 26.5455 25.0516 26.2383 25.228C25.931 25.4045 25.5912 25.4829 25.6566 25.3261C25.722 25.1693 25.6893 25.1693 25.9704 24.9601C26.2514 24.751 26.4344 24.5941 26.4344 24.4177C26.4344 24.2412 26.2187 24.1888 26.2187 24.1888Z" fill="#040000"/>
<path d="M10.6109 22.4241C10.4932 22.2542 10.4932 22.2019 10.4802 21.9274C10.4672 21.6529 10.3756 21.5222 10.4802 21.3653C10.5848 21.2085 10.8592 20.9471 10.9639 20.764C11.0685 20.5811 11.0946 20.1889 11.16 20.5417C11.2254 20.8947 11.4345 21.1038 11.1207 21.5745C10.807 22.045 10.6109 22.4241 10.6109 22.4241Z" fill="#040000"/>
<path d="M4.32347 12.6986C4.2973 12.6463 4.41495 12.4763 4.41495 12.4763C4.41495 12.4763 4.55879 12.3978 4.51957 12.1103C4.48035 11.8227 4.45417 11.9926 4.34965 11.7181C4.24504 11.4436 4.08825 11.4958 4.24504 11.3129C4.40191 11.1298 4.58487 10.8554 4.62409 11.0775C4.66331 11.2997 4.57183 11.4435 4.66331 11.5482C4.75479 11.6528 4.93784 11.6743 5.04236 11.8465C5.14697 12.0187 5.56524 12.0841 5.25149 12.3063C4.93774 12.5285 4.794 12.3847 4.67635 12.5416C4.55869 12.6986 4.32347 12.6986 4.32347 12.6986Z" fill="#040000"/>
<path d="M3.90496 12.4894C4.1141 12.3718 4.19055 12.3979 4.17845 12.1887C4.16636 11.9796 4.31019 11.7965 4.08792 11.7835C3.86574 11.7704 3.80035 11.9011 3.77417 11.9926C3.74799 12.0841 3.74799 12.1103 3.81339 12.2017C3.87878 12.2932 3.89183 12.424 3.86565 12.4893C3.83966 12.5548 3.90496 12.4894 3.90496 12.4894Z" fill="#040000"/>
<path d="M3.14712 10.4502C3.31703 10.3326 3.59156 10.4372 3.60461 10.1887C3.61765 9.94039 3.68304 9.87499 3.30399 9.84891C2.92494 9.82273 2.92494 9.82273 2.68963 9.84891C2.45431 9.87509 2.23214 9.63978 2.4151 9.99274C2.59805 10.3457 2.62423 10.4242 2.76806 10.4502C2.9119 10.4763 3.14712 10.4502 3.14712 10.4502Z" fill="#040000"/>
<path d="M29.4618 9.50908C29.2578 9.27585 28.9259 9.26073 29.1873 9.11689C29.4487 8.97315 29.6056 8.88158 29.854 8.82932C30.1024 8.77706 30.3638 8.88158 30.7691 8.98619C31.1743 9.09081 31.8279 8.99924 32.1286 9.09081C32.4292 9.18229 32.573 9.36534 32.6645 9.3522C32.756 9.33916 33.0175 9.06463 33.2789 9.06463C33.5403 9.06463 33.6711 9.02541 34.207 9.09081C34.7429 9.15621 35.2658 9.18229 35.2789 9.31308C35.2919 9.44378 35.2919 9.50917 35.488 9.50917C35.6841 9.50917 35.854 9.39152 35.9717 9.57457C36.0893 9.75762 36.2723 9.88832 36.2462 9.74449C36.22 9.60075 36.0893 9.48309 36.1939 9.43074C36.2985 9.37848 36.5992 9.3523 36.6776 9.37848C36.756 9.40465 37.0044 9.44387 37.0828 9.43074C37.1613 9.4177 37.109 9.2869 37.3704 9.36534C37.6318 9.44378 37.671 9.63987 37.7234 9.65291C37.7756 9.66595 37.8933 9.45191 37.9063 9.31062C37.9194 9.16925 38.037 9.16925 37.8018 8.98629C37.5665 8.80324 37.779 8.58106 37.9472 8.6595C38.1155 8.73794 38.0109 8.84255 38.1809 9.01247C38.3508 9.18238 38.377 9.32622 38.4946 9.27386C38.6123 9.2216 38.5469 8.99933 38.7037 9.16925C38.8606 9.33916 38.8998 9.25354 39.0436 9.22444C39.1874 9.19533 39.0698 9.10385 39.2397 9.19533C39.4096 9.28681 39.6972 9.39142 39.488 9.56134C39.2789 9.73126 38.9651 9.70517 38.743 9.83587C38.5207 9.96657 38.5861 9.92735 38.5207 10.0842C38.4553 10.2411 38.4815 10.2541 38.2201 10.3195C37.9586 10.3849 37.8802 10.3326 37.8933 10.5549C37.9063 10.7771 37.8802 10.8032 37.7887 10.9209C37.6972 11.0385 37.7495 11.1431 37.8541 11.1954C37.9587 11.2477 38.0762 11.1562 38.0762 11.313C38.0762 11.4699 38.2723 11.5876 38.5337 11.5876C38.7951 11.5876 38.9128 11.653 39.0697 11.849C39.2265 12.0451 39.0043 12.0581 39.2658 12.3065C39.5271 12.5548 39.7756 12.6725 39.8148 12.4503C39.854 12.2281 39.8148 12.1758 39.854 11.9144C39.8933 11.653 40.1416 11.6268 40.0109 11.3915C39.8802 11.1562 39.6841 11.0517 39.8671 10.9209C40.0501 10.7902 39.8279 10.6694 40.1416 10.6056C40.4554 10.5418 40.6645 10.4895 40.7952 10.7248C40.9259 10.9601 40.7821 11.117 40.9128 11.2215C41.0435 11.3261 41.4488 11.1692 41.5272 11.0777C41.6056 10.9863 41.8278 10.9993 41.9063 11.3391C41.9847 11.679 42.037 11.7705 42.1546 11.8098C42.2723 11.849 42.2723 11.9274 42.4161 12.0581C42.5598 12.1888 42.8344 12.3979 42.4161 12.4372C41.9978 12.4764 41.6579 12.4241 41.501 12.5679C41.3442 12.7116 41.3311 12.6071 41.4356 12.8032C41.5403 12.9993 41.4618 12.8686 41.5403 13.1169C41.6187 13.3653 42.0109 13.3653 41.7232 13.5352C41.4355 13.7051 41.4879 13.7443 41.318 13.6921C41.1481 13.6398 41.1088 13.2644 40.9128 13.5698C40.7167 13.8751 40.7428 13.9928 40.5729 14.0843C40.403 14.1757 40.3899 13.9928 40.2331 14.2804C40.0762 14.5679 40.3246 14.5941 39.9717 14.9209C39.6187 15.2477 39.4488 15.0908 39.4226 15.3653C39.3965 15.6399 39.5665 15.9667 39.4749 16.0321C39.3834 16.0975 39.3965 16.0843 39.2919 15.9014C39.1873 15.7183 39.2397 15.6138 38.8737 15.5876C38.5076 15.5614 38.5338 15.47 38.39 15.6268C38.2462 15.7837 38.4423 15.836 38.037 15.7837C37.6318 15.7314 37.5795 15.2478 37.5011 15.8099C37.4227 16.372 37.4096 16.4373 37.5403 16.5942C37.671 16.751 38.024 17.1301 38.1809 16.9602C38.3377 16.7903 38.1416 16.5811 38.4423 16.6464C38.743 16.7118 38.8214 16.6334 38.7691 16.8033C38.7169 16.9732 38.3116 16.9994 38.6384 17.1563C38.9652 17.3131 39.2398 17.1301 39.2658 17.3785C39.292 17.6269 39.2266 17.6923 39.2397 17.836C39.2527 17.9798 39.3181 18.0844 39.6187 18.0844C39.9193 18.0844 39.9063 17.9667 39.9847 18.1236C40.0632 18.2805 40.3115 18.202 40.4161 17.9798C40.5208 17.7575 40.5992 17.5091 40.756 17.7706C40.9128 18.032 40.9389 18.0844 41.0958 17.9798C41.2527 17.8752 41.2527 17.8752 41.2527 17.8752C41.2527 17.8752 41.4226 17.7183 41.5664 17.849C41.7103 17.9797 41.9455 17.8359 41.9978 18.0189C42.0501 18.2018 41.9717 18.228 42.1939 18.2934C42.4162 18.3588 42.6776 18.2542 42.8083 18.4372C42.939 18.6202 42.586 18.5026 42.9652 18.7247C43.3442 18.947 43.4619 18.9731 43.4358 19.1169C43.4096 19.2608 43.5142 19.2868 43.8541 19.3653C44.1939 19.4437 44.1416 19.4045 44.4162 19.6136C44.6907 19.8228 44.9129 19.7313 45.0045 19.8359C45.0959 19.9405 45.2528 19.9666 45.1221 20.2542C44.9914 20.5417 44.8607 20.4764 44.7561 20.6986C44.6515 20.9209 44.56 20.9732 44.5862 21.3653C44.6124 21.7575 44.6254 21.7183 44.547 21.9144C44.4685 22.1105 44.181 22.1366 43.9456 22.2804C43.7103 22.4242 43.6973 22.3066 43.5404 22.6987C43.3835 23.0909 43.475 22.8817 43.3443 23.2216C43.2136 23.5614 43.3966 23.3915 43.0175 23.5876C42.6385 23.7837 42.4946 23.6138 42.4554 23.7314C42.4162 23.8491 42.6777 23.7576 42.4032 24.0059C42.1286 24.2543 42.011 24.3197 41.8411 24.4242C41.6711 24.5287 41.5665 24.6465 41.6057 24.8687C41.645 25.0908 41.8411 25.0778 41.6188 25.2869C41.3965 25.4961 41.305 25.2869 41.2397 25.6268C41.1743 25.9666 41.109 25.8098 41.1743 26.1627C41.2397 26.5157 41.5796 26.5157 41.2658 26.7118C40.9521 26.9079 40.6122 26.9993 40.4161 26.5288C40.22 26.0582 40.22 25.8752 40.22 25.5615C40.22 25.2477 40.1808 25.483 40.3377 24.9471C40.4946 24.4112 40.2331 24.5941 40.3639 24.0059C40.4946 23.4177 40.4685 22.7903 40.5992 22.3589C40.7299 21.9274 41.0175 22.0451 40.7299 21.653C40.4423 21.2608 40.3901 21.3262 40.1417 21.0647C39.8933 20.8033 40.0502 20.8556 39.9064 20.5418C39.7626 20.2281 39.6711 20.2543 39.5534 20.019C39.4358 19.7836 39.3704 19.8621 39.488 19.47C39.6057 19.0778 39.3443 19.0909 39.6057 18.9733C39.8671 18.8556 39.828 18.568 39.7887 18.4634C39.7495 18.3588 39.9848 18.3196 39.6188 18.2673C39.2528 18.2151 39.1482 18.3327 39.0175 18.1105C38.8868 17.8882 38.9913 17.8491 38.7169 17.7183C38.4423 17.5876 38.1417 17.5876 38.0371 17.483C37.9325 17.3783 37.9325 17.3784 37.9325 17.3784C37.9325 17.3784 38.1286 17.2999 37.6841 17.2477C37.2397 17.1954 36.9129 17.2477 36.6906 16.9339C36.4684 16.6202 36.5207 16.8032 36.4684 16.5156C36.4161 16.2281 36.3507 16.2281 36.1416 16.045C35.9324 15.862 35.9324 15.7574 35.7363 15.679C35.5403 15.6006 35.501 15.6267 35.501 15.666C35.501 15.7052 35.488 15.862 35.6709 16.0058C35.854 16.1496 35.867 16.2803 35.867 16.3456C35.867 16.411 35.6187 16.4895 35.6187 16.4895C35.6187 16.4895 35.6187 16.411 35.5403 16.2281C35.4618 16.045 35.4356 15.9535 35.2788 15.7314C35.1219 15.5092 35.0827 15.483 35.0827 15.483C35.0827 15.483 34.8996 15.1954 34.586 14.8164C34.2722 14.4373 34.1807 14.6725 34.1807 14.2412C34.1807 13.8098 34.2592 13.8098 34.1807 13.5092C34.1023 13.2086 33.9193 13.0648 34.0761 13.0125C34.233 12.9602 34.3245 12.8818 34.0369 12.6334C33.7493 12.3851 33.6447 12.5158 33.5402 12.176C33.4356 11.8361 33.6578 11.8622 33.2264 11.7053C32.795 11.5485 32.7428 11.4178 32.5467 11.3263C32.3506 11.2348 32.2329 11.1825 32.2329 11.1825C32.2329 11.1825 32.2721 11.1433 31.8015 11.1041C31.3309 11.0649 31.3833 10.8427 31.0303 10.9864C30.6773 11.1303 30.6251 11.1564 30.6251 11.1564C30.6251 11.1564 30.8211 10.9211 30.4813 10.9472C30.1415 10.9734 30.2198 11.0518 30.2068 11.2087C30.1937 11.3656 30.246 11.5486 30.0107 11.6401C29.7754 11.7316 29.4355 11.98 29.5662 11.7186C29.6969 11.4571 30.0237 11.2741 29.9061 11.2087C29.7884 11.1433 29.5401 11.3525 29.5139 11.1433C29.4877 10.9342 29.5401 10.8296 29.2655 10.8165C28.991 10.8035 28.7688 10.6858 28.978 10.5943C29.1871 10.5028 29.3832 10.542 29.4486 10.3197C29.514 10.0975 29.9976 10.0452 29.4616 10.0583C28.9257 10.0714 28.6904 10.0714 28.7558 9.96685C28.8212 9.86224 28.795 9.66624 29.1741 9.7185C29.5533 9.77048 29.5533 9.6136 29.4618 9.50908Z" fill="#040000"/>
</g>
<path d="M8.02252 20.6486C7.96497 20.5192 7.89315 20.4114 7.79969 20.3251C7.69904 20.2388 7.59121 20.1742 7.46174 20.1238C7.33955 20.0806 7.2029 20.0592 7.06634 20.0592C6.92251 20.0592 6.78595 20.0807 6.66376 20.1238C6.64939 20.131 6.62785 20.1382 6.61339 20.1454C6.51274 20.1958 6.4121 20.2532 6.333 20.3252C6.23235 20.4115 6.16044 20.5193 6.10288 20.6487C6.04533 20.771 6.0166 20.9219 6.0166 21.0801V22.5324C6.0166 22.6978 6.04533 22.8415 6.10288 22.9709C6.16034 23.1004 6.23226 23.201 6.333 23.2945C6.42646 23.3808 6.54147 23.4454 6.66366 23.4885C6.78586 23.5317 6.92251 23.5532 7.06625 23.5532C7.13098 23.5532 7.2029 23.546 7.26754 23.5389C7.33227 23.5245 7.4041 23.51 7.46165 23.4885C7.59112 23.4454 7.69895 23.3808 7.79959 23.2945C7.89305 23.201 7.96497 23.1004 8.02243 22.9709C8.07998 22.8415 8.10871 22.6978 8.10871 22.5324V21.0801C8.10881 20.9218 8.08008 20.7708 8.02252 20.6486ZM7.48329 22.5251C7.48329 22.676 7.4402 22.7839 7.36828 22.8703C7.29636 22.9422 7.21008 22.9852 7.10225 22.9924H7.06634C6.93697 22.9924 6.83623 22.9493 6.75722 22.8703C6.68531 22.7839 6.64221 22.6761 6.64221 22.5251V21.0944C6.64221 21.0656 6.64221 21.0441 6.64939 21.0225C6.64939 21.0153 6.65658 21.0082 6.65658 21.0082C6.66376 20.9004 6.69967 20.8212 6.75722 20.7493C6.77159 20.7351 6.78595 20.7206 6.80032 20.7134C6.87223 20.6487 6.95851 20.627 7.06634 20.627C7.18863 20.627 7.28918 20.663 7.36837 20.7493C7.44029 20.8356 7.48338 20.9506 7.48338 21.0944L7.48329 22.5251Z" fill="#CECECF"/>
<path d="M9.6906 20.0875L8.99316 20.6986V21.3744L9.6906 20.7633V23.5241H10.3233V20.0875H9.6906Z" fill="#CECECF"/>
<path d="M11.4814 20.0875V21.1947H12.0782V20.6554H12.9912L11.8697 23.5241H12.5526L13.667 20.6554V20.0875H11.4814Z" fill="#CECECF"/>
<path d="M16.2549 20.6483C16.1974 20.519 16.1256 20.4111 16.0321 20.3248C15.9315 20.2386 15.8236 20.1739 15.6942 20.1236C15.5648 20.0804 15.4353 20.0589 15.2988 20.0589C15.1549 20.0589 15.0184 20.0805 14.8962 20.1236C14.7668 20.1739 14.6589 20.2386 14.5654 20.3248C14.4648 20.4111 14.3857 20.519 14.3353 20.6483C14.2778 20.7706 14.249 20.9215 14.249 21.0797V22.5321C14.249 22.6974 14.2778 22.8412 14.3353 22.9706C14.3857 23.1 14.4648 23.2007 14.5654 23.2941C14.6589 23.3804 14.7667 23.4451 14.8962 23.4881C15.0184 23.5313 15.155 23.5529 15.2988 23.5529C15.4353 23.5529 15.5648 23.5313 15.6942 23.4881C15.8235 23.4451 15.9315 23.3804 16.0321 23.2941C16.1256 23.2007 16.1975 23.1 16.2549 22.9706C16.3124 22.8412 16.3412 22.6974 16.3412 22.5321V21.0797C16.3411 20.9215 16.3124 20.7705 16.2549 20.6483ZM15.7085 22.5249C15.7085 22.6758 15.6726 22.7836 15.6007 22.87C15.5216 22.949 15.421 22.9922 15.2988 22.9922C15.1694 22.9922 15.0687 22.949 14.9896 22.87C14.9178 22.7836 14.8746 22.6759 14.8746 22.5249V21.0942C14.8746 20.9504 14.9178 20.8353 14.9896 20.7491C15.0687 20.6628 15.1694 20.6268 15.2988 20.6268C15.421 20.6268 15.5216 20.6628 15.6007 20.7491C15.6726 20.8354 15.7085 20.9504 15.7085 21.0942V22.5249Z" fill="#CECECF"/>
<path d="M21.5175 22.0575C21.4744 21.9281 21.4025 21.8203 21.3162 21.734C21.2299 21.6477 21.1364 21.5831 21.0286 21.5327C20.9208 21.4896 20.8057 21.468 20.6907 21.468C20.6476 21.468 20.6044 21.468 20.5613 21.4751C20.5182 21.4823 20.475 21.4895 20.4391 21.511L20.6763 21.0438L21.1508 20.0875H20.4678L20.3959 20.2314V20.2386L20.3096 20.4111L19.7417 21.5758C19.7345 21.5901 19.7273 21.6046 19.7201 21.619C19.6482 21.7627 19.5908 21.8993 19.5404 22.0359C19.4828 22.1797 19.4541 22.3379 19.4541 22.4961C19.4541 22.6614 19.4756 22.8124 19.5332 22.9489C19.5908 23.0784 19.6626 23.1934 19.7633 23.2797C19.8352 23.3516 19.9071 23.402 20.0005 23.4451H20.0077C20.0365 23.4594 20.0724 23.4739 20.1012 23.4881C20.2305 23.5313 20.3744 23.5529 20.5254 23.5529C20.6763 23.5529 20.813 23.5313 20.9423 23.4811C21.0789 23.4379 21.1868 23.366 21.2875 23.2725L21.2946 23.2653C21.3881 23.1718 21.46 23.0713 21.5103 22.9346C21.5679 22.8052 21.5966 22.6543 21.5966 22.4817C21.5966 22.3235 21.5679 22.1868 21.5175 22.0575ZM20.5254 21.9856C20.6619 21.9856 20.7698 22.0287 20.849 22.1222C20.9281 22.2085 20.9712 22.3379 20.9712 22.4889C20.9712 22.647 20.9281 22.7763 20.8418 22.8627C20.7555 22.9489 20.6549 22.9921 20.5254 22.9921C20.396 22.9921 20.2881 22.9489 20.2018 22.8627C20.1227 22.7763 20.0796 22.647 20.0796 22.4889C20.0796 22.3307 20.1227 22.2013 20.2018 22.115C20.2881 22.0287 20.3959 21.9856 20.5254 21.9856Z" fill="#CECECF"/>
<path d="M24.2916 21.8849C24.2629 21.734 24.1765 21.583 24.04 21.4537C23.9681 21.3817 23.8819 21.3242 23.774 21.281C23.6661 21.2379 23.5439 21.2164 23.3929 21.2164C23.2779 21.2164 23.1773 21.238 23.0838 21.2739C22.9903 21.3098 22.9256 21.3458 22.8825 21.3889V20.6556H24.2701V20.0876H22.3074V22.0288H22.8825C22.9041 21.9642 22.9472 21.8994 23.0119 21.8419C23.055 21.7988 23.1053 21.77 23.1773 21.7628C23.2132 21.7484 23.2564 21.7484 23.2995 21.7484C23.4576 21.7484 23.5655 21.806 23.6229 21.9065C23.6877 22.0144 23.7236 22.1655 23.7236 22.3667C23.7236 22.4745 23.7092 22.5751 23.6948 22.6687C23.6948 22.6831 23.6876 22.6903 23.6804 22.6975C23.6804 22.7047 23.6804 22.7047 23.6804 22.7047C23.6589 22.7765 23.6301 22.8341 23.5869 22.8773C23.5078 22.9563 23.4144 22.9923 23.285 22.9923C23.1556 22.9923 23.0549 22.9563 22.9902 22.8773C22.9255 22.8053 22.8824 22.7047 22.8681 22.5681H22.2354C22.2497 22.6903 22.2713 22.8124 22.3073 22.9347C22.3432 23.0642 22.4079 23.1719 22.5157 23.2799C22.5877 23.359 22.6955 23.4165 22.825 23.474C22.9471 23.5314 23.1053 23.5531 23.2851 23.5531C23.3498 23.5531 23.4001 23.5531 23.4505 23.5387H23.4577C23.5655 23.5315 23.6589 23.5099 23.7452 23.4741C23.8674 23.4166 23.9681 23.3518 24.0472 23.28C24.1695 23.1505 24.2485 23.0139 24.2916 22.8702C24.3276 22.7264 24.3492 22.561 24.3492 22.3669C24.3492 22.2013 24.3276 22.0431 24.2916 21.8849Z" fill="#CECECF"/>
<path d="M24.9463 20.0875V21.1947H25.5431V20.6554H26.4562L25.3418 23.5241H26.0176L27.1391 20.6554V20.0875H24.9463Z" fill="#CECECF"/>
<path d="M29.7566 20.6699C29.7063 20.5333 29.6273 20.4255 29.5338 20.332C29.4332 20.2458 29.3253 20.1738 29.1888 20.1307C29.0594 20.0804 28.9228 20.0588 28.7717 20.0588C28.6208 20.0588 28.477 20.0804 28.3476 20.1307C28.2182 20.1811 28.1031 20.2529 28.0025 20.3392C27.909 20.4326 27.8371 20.5478 27.7796 20.6771C27.7222 20.8136 27.6934 20.9646 27.6934 21.13C27.6934 21.2954 27.7222 21.4392 27.7725 21.5613C27.8228 21.6836 27.8947 21.7914 27.9738 21.8776C28.06 21.964 28.1607 22.0358 28.2685 22.0789C28.3763 22.1293 28.4913 22.1509 28.6064 22.1509C28.6495 22.1509 28.6927 22.1509 28.7358 22.1437C28.7789 22.1366 28.8221 22.1221 28.858 22.1077L28.1462 23.5241H28.8292L29.5554 22.0431C29.6345 21.8849 29.6992 21.7267 29.7566 21.583C29.8142 21.432 29.8429 21.281 29.8429 21.1228C29.8429 20.9503 29.8142 20.7993 29.7566 20.6699ZM29.088 21.4967C29.0018 21.583 28.9011 21.6262 28.7717 21.6262C28.6352 21.6262 28.5273 21.583 28.4482 21.4967C28.3619 21.4032 28.326 21.2809 28.326 21.13C28.326 20.9646 28.3691 20.8424 28.4482 20.7562C28.5344 20.6699 28.6423 20.6267 28.7717 20.6267C28.9011 20.6267 29.0018 20.6699 29.088 20.7562C29.1743 20.8424 29.2102 20.9646 29.2102 21.13C29.2103 21.2882 29.1743 21.4104 29.088 21.4967Z" fill="#CECECF"/>
<path d="M33.8765 20.0875L33.1719 20.6986V21.3744L33.8765 20.7633V23.5241H34.502V20.0875H33.8765Z" fill="#CECECF"/>
<path d="M35.6592 20.0875V21.1947H36.2631V20.6554H37.169L36.0546 23.5241H36.7376L37.8519 20.6554V20.0875H35.6592Z" fill="#CECECF"/>
<path d="M39.3615 20.0875L38.6641 20.6986V21.3744L39.3615 20.7633V23.5241H39.9941V20.0875H39.3615Z" fill="#CECECF"/>
<path d="M43.2157 20.6699C43.1654 20.5333 43.0863 20.4255 42.9929 20.332C42.8922 20.2458 42.7843 20.1738 42.6478 20.1307C42.5184 20.0804 42.3817 20.0588 42.2308 20.0588C42.0798 20.0588 41.9361 20.0804 41.8066 20.1307C41.6772 20.1811 41.5622 20.2529 41.4615 20.3392C41.368 20.4326 41.2889 20.5478 41.2386 20.6771C41.1811 20.8136 41.1523 20.9646 41.1523 21.13C41.1523 21.2954 41.1811 21.4392 41.2314 21.5613C41.2818 21.6836 41.3536 21.7914 41.4327 21.8776C41.519 21.964 41.6125 22.0358 41.7275 22.0789C41.8353 22.1293 41.9503 22.1509 42.0653 22.1509C42.1084 22.1509 42.1516 22.1509 42.1947 22.1437C42.2379 22.1366 42.281 22.1221 42.317 22.1077L41.6052 23.5241H42.2882L43.0143 22.0431C43.0934 21.8849 43.1582 21.7267 43.2156 21.583C43.2731 21.432 43.3019 21.281 43.3019 21.1228C43.302 20.9503 43.2733 20.7993 43.2157 20.6699ZM42.5471 21.4967C42.4608 21.583 42.3602 21.6262 42.2308 21.6262C42.0943 21.6262 41.9863 21.583 41.9072 21.4967C41.821 21.4032 41.785 21.2809 41.785 21.13C41.785 20.9646 41.8281 20.8424 41.9072 20.7562C41.9935 20.6699 42.1013 20.6267 42.2308 20.6267C42.3602 20.6267 42.4608 20.6699 42.5471 20.7562C42.6334 20.8424 42.6693 20.9646 42.6693 21.13C42.6693 21.2882 42.6334 21.4104 42.5471 21.4967Z" fill="#CECECF"/>
<path d="M30.5638 29.1392C30.5207 29.0457 30.4632 28.9666 30.3984 28.9019C30.3265 28.8372 30.2474 28.7868 30.1539 28.7581C30.0605 28.7221 29.9598 28.7077 29.8592 28.7077C29.7514 28.7077 29.6579 28.7221 29.5644 28.7581C29.471 28.7869 29.3919 28.8372 29.32 28.9019C29.248 28.9666 29.1906 29.0457 29.1474 29.1392C29.1115 29.2326 29.0898 29.3404 29.0898 29.4555V30.5195C29.0898 30.6418 29.1114 30.7496 29.1474 30.843C29.1906 30.9365 29.248 31.0156 29.32 31.0802C29.3919 31.145 29.471 31.1953 29.5644 31.224C29.6579 31.26 29.7514 31.2744 29.8592 31.2744C29.9598 31.2744 30.0605 31.26 30.1539 31.224C30.2474 31.1953 30.3265 31.145 30.3984 31.0802C30.4632 31.0156 30.5206 30.9365 30.5638 30.843C30.607 30.7496 30.6214 30.6418 30.6214 30.5195V29.4555C30.6214 29.3405 30.607 29.2327 30.5638 29.1392ZM30.1612 30.5196C30.1612 30.6274 30.1325 30.7065 30.0821 30.7712C30.0246 30.8287 29.9528 30.8574 29.8593 30.8574C29.7658 30.8574 29.6939 30.8287 29.6364 30.7712C29.5789 30.7065 29.5502 30.6274 29.5502 30.5196V29.4627C29.5502 29.3622 29.5789 29.2758 29.6364 29.2111C29.694 29.1536 29.7658 29.1248 29.8593 29.1248C29.9528 29.1248 30.0247 29.1536 30.0821 29.2111C30.1325 29.2758 30.1612 29.3621 30.1612 29.4627V30.5196Z" fill="#CECECF"/>
<path d="M32.6191 30.0522C32.5974 29.9372 32.5328 29.8293 32.4321 29.7287C32.3818 29.6784 32.3171 29.6352 32.238 29.6064C32.1589 29.5705 32.0655 29.5561 31.9576 29.5561C31.8785 29.5561 31.7995 29.5705 31.7348 29.5992C31.6629 29.6208 31.6126 29.6496 31.5839 29.6856V29.1392H32.6048V28.7293H31.1597V30.1528H31.5839C31.5982 30.1025 31.6342 30.0594 31.6773 30.0162C31.7276 29.9731 31.7924 29.9444 31.893 29.9444C32.0008 29.9444 32.0799 29.9875 32.1302 30.0667C32.1734 30.1457 32.1949 30.2536 32.1949 30.4046C32.1949 30.4837 32.1949 30.5555 32.1806 30.6203C32.1662 30.6849 32.1375 30.7353 32.1015 30.7784C32.0439 30.8359 31.9721 30.8574 31.8786 30.8574C31.7852 30.8574 31.7061 30.8359 31.663 30.7784C31.6126 30.7209 31.5839 30.6489 31.5695 30.5483H31.1094C31.1166 30.6418 31.1309 30.728 31.1597 30.8215C31.1885 30.9078 31.2388 30.9941 31.3179 31.0731C31.3682 31.1234 31.4473 31.1737 31.5408 31.2168C31.6342 31.2528 31.7493 31.2744 31.8786 31.2744C32.008 31.2744 32.1231 31.2528 32.2166 31.2168C32.3029 31.1737 32.382 31.1234 32.4394 31.0659C32.5257 30.9797 32.5903 30.879 32.6192 30.7712C32.6479 30.6706 32.6623 30.5411 32.6623 30.4046C32.6622 30.2824 32.6478 30.1673 32.6191 30.0522Z" fill="#CECECF"/>
<path d="M33.9356 28.4635L32.9219 31.519H33.3532L34.3669 28.4635H33.9356Z" fill="#CECECF"/>
<path d="M35.3233 28.7293L34.8057 29.1752V29.6712L35.3233 29.2254V31.2528H35.7834V28.7293H35.3233Z" fill="#CECECF"/>
<path d="M37.336 28.7293L36.8184 29.1752V29.6712L37.336 29.2254V31.2528H37.7962V28.7293H37.336Z" fill="#CECECF"/>
<path d="M38.6816 30.0235V30.4548H39.7744V30.0235H38.6816Z" fill="#CECECF"/>
<path d="M41.7444 29.1392C41.7013 29.0457 41.6437 28.9666 41.5718 28.9019C41.5072 28.8372 41.4209 28.7868 41.3274 28.7581C41.234 28.7221 41.1405 28.7077 41.0399 28.7077C40.932 28.7077 40.8386 28.7221 40.7451 28.7581C40.6516 28.7869 40.5725 28.8372 40.5006 28.9019C40.4287 28.9666 40.3712 29.0457 40.3281 29.1392C40.285 29.2326 40.2705 29.3404 40.2705 29.4555V30.5195C40.2705 30.6418 40.2849 30.7496 40.3281 30.843C40.3712 30.9365 40.4287 31.0156 40.5006 31.0802C40.5725 31.145 40.6516 31.1953 40.7451 31.224C40.8386 31.26 40.932 31.2744 41.0399 31.2744C41.1405 31.2744 41.234 31.26 41.3274 31.224C41.4209 31.1953 41.5072 31.145 41.5718 31.0802C41.6437 31.0156 41.7013 30.9365 41.7444 30.843C41.7803 30.7496 41.8018 30.6418 41.8018 30.5195V29.4555C41.8018 29.3405 41.7803 29.2327 41.7444 29.1392ZM41.3417 30.5196C41.3417 30.6274 41.3129 30.7065 41.2554 30.7712C41.2051 30.8287 41.126 30.8574 41.0398 30.8574C40.9463 30.8574 40.8672 30.8287 40.8169 30.7712C40.7594 30.7065 40.7306 30.6274 40.7306 30.5196V29.4627C40.7306 29.3622 40.7594 29.2758 40.8169 29.2111C40.8673 29.1536 40.9463 29.1248 41.0398 29.1248C41.126 29.1248 41.2051 29.1536 41.2554 29.2111C41.313 29.2758 41.3417 29.3621 41.3417 29.4627V30.5196Z" fill="#CECECF"/>
<path d="M43.7571 29.1392C43.714 29.0457 43.6564 28.9666 43.5917 28.9019C43.5198 28.8372 43.4408 28.7868 43.3473 28.7581C43.2538 28.7221 43.1532 28.7077 43.0525 28.7077C42.9446 28.7077 42.8512 28.7221 42.7577 28.7581C42.6642 28.7869 42.5851 28.8372 42.5132 28.9019C42.4414 28.9666 42.3838 29.0457 42.3407 29.1392C42.3047 29.2326 42.2832 29.3404 42.2832 29.4555V30.5195C42.2832 30.6418 42.3047 30.7496 42.3407 30.843C42.3838 30.9365 42.4413 31.0156 42.5132 31.0802C42.5851 31.145 42.6642 31.1953 42.7577 31.224C42.8512 31.26 42.9446 31.2744 43.0525 31.2744C43.1531 31.2744 43.2538 31.26 43.3473 31.224C43.4408 31.1953 43.5199 31.145 43.5917 31.0802C43.6564 31.0156 43.714 30.9365 43.7571 30.843C43.8002 30.7496 43.8145 30.6418 43.8145 30.5195V29.4555C43.8146 29.3405 43.8003 29.2327 43.7571 29.1392ZM43.3545 30.5196C43.3545 30.6274 43.3257 30.7065 43.2754 30.7712C43.2179 30.8287 43.146 30.8574 43.0526 30.8574C42.9592 30.8574 42.8872 30.8287 42.8297 30.7712C42.7723 30.7065 42.7434 30.6274 42.7434 30.5196V29.4627C42.7434 29.3622 42.7723 29.2758 42.8297 29.2111C42.8873 29.1536 42.9592 29.1248 43.0526 29.1248C43.146 29.1248 43.2179 29.1536 43.2754 29.2111C43.3258 29.2758 43.3545 29.3621 43.3545 29.4627V30.5196Z" fill="#CECECF"/>
<path d="M6.37695 24.4084V24.6385H6.72208V25.7242H6.98092V24.6385H7.32605V24.4084H6.37695Z" fill="#CECECF"/>
<path d="M8.49017 24.7535C8.47581 24.7105 8.46853 24.6745 8.44708 24.6385C8.43271 24.6025 8.40389 24.5665 8.36798 24.5307C8.32489 24.4876 8.27452 24.4516 8.21706 24.4301C8.15951 24.4085 8.09477 24.3941 8.02295 24.3941C7.94385 24.3941 7.87912 24.4084 7.82166 24.4301C7.7642 24.4516 7.71383 24.4876 7.67074 24.5307C7.63483 24.5666 7.606 24.6026 7.59164 24.6385C7.57 24.6745 7.56281 24.7105 7.54854 24.7535C7.54136 24.7967 7.54136 24.8471 7.53418 24.8974V25.2352C7.54136 25.2855 7.54136 25.3287 7.54854 25.3719C7.56291 25.415 7.57009 25.4582 7.59164 25.4941C7.606 25.5229 7.63473 25.5588 7.67074 25.5947C7.71383 25.6379 7.7642 25.6738 7.82166 25.6954C7.87921 25.7242 7.94394 25.7314 8.02295 25.7314C8.09487 25.7314 8.1596 25.7242 8.21706 25.6954C8.27452 25.6738 8.32489 25.6379 8.36798 25.5947C8.40389 25.5588 8.43271 25.5228 8.44708 25.4941C8.46863 25.4582 8.47581 25.415 8.49017 25.3719C8.49735 25.3287 8.50454 25.2855 8.50454 25.2352V24.8974C8.50454 24.847 8.49735 24.7967 8.49017 24.7535ZM8.24569 25.221C8.24569 25.2641 8.23851 25.2928 8.23133 25.3215C8.23133 25.3503 8.22415 25.3719 8.21696 25.3862C8.20978 25.4006 8.19532 25.415 8.18096 25.4293C8.16659 25.451 8.14505 25.4724 8.11632 25.4796C8.08759 25.494 8.05877 25.5012 8.02285 25.5012C7.98694 25.5012 7.95103 25.494 7.92221 25.4796C7.90066 25.4724 7.87184 25.4509 7.85039 25.4293C7.8432 25.415 7.82875 25.4006 7.82156 25.3862C7.81438 25.3719 7.8072 25.3502 7.8072 25.3215C7.80002 25.2927 7.79283 25.2641 7.79283 25.221V24.9046C7.79283 24.8687 7.80002 24.8326 7.8072 24.8039C7.8072 24.7751 7.81438 24.7535 7.82156 24.7393C7.82875 24.7249 7.84311 24.7105 7.85039 24.6961C7.87193 24.6745 7.90076 24.6602 7.92221 24.6458C7.95103 24.6315 7.98694 24.6243 8.02285 24.6243C8.05877 24.6243 8.08759 24.6315 8.11632 24.6458C8.14505 24.6602 8.16669 24.6746 8.18096 24.6961C8.19532 24.7105 8.20978 24.7249 8.21696 24.7393C8.22415 24.7535 8.23133 24.7752 8.23133 24.8039C8.23851 24.8327 8.24569 24.8687 8.24569 24.9046V25.221Z" fill="#CECECF"/>
<path d="M9.72754 24.6601C9.71318 24.6097 9.68445 24.5665 9.64126 24.5306C9.60535 24.4875 9.56216 24.4588 9.5047 24.4371C9.45433 24.4155 9.38969 24.4083 9.32496 24.4083H8.81445V25.7241H9.0733V25.228H9.32486C9.3896 25.228 9.45424 25.2137 9.50461 25.192C9.56216 25.1704 9.60525 25.1417 9.64117 25.1057C9.68435 25.0697 9.71308 25.0266 9.72745 24.9763C9.74909 24.9259 9.75618 24.8685 9.75618 24.8182C9.75627 24.7607 9.74918 24.7104 9.72754 24.6601ZM9.45433 24.9476C9.41842 24.9765 9.36805 24.998 9.3105 24.998H9.0733V24.6385H9.3105C9.36805 24.6385 9.41833 24.6529 9.45433 24.6817C9.48306 24.7176 9.5047 24.7607 9.5047 24.8183C9.5047 24.8686 9.48306 24.9117 9.45433 24.9476Z" fill="#CECECF"/>
<path d="M10.8852 24.6385V24.4084H10.0225V25.7242H10.8852V25.4941H10.2813V25.1706H10.7989V24.9405H10.2813V24.6385H10.8852Z" fill="#CECECF"/>
<path d="M11.7761 25.451C11.7402 25.4869 11.6898 25.5012 11.6251 25.5012C11.5892 25.5012 11.5604 25.4941 11.5317 25.4869C11.503 25.4725 11.4813 25.4582 11.4598 25.4366C11.4526 25.4222 11.4382 25.4079 11.431 25.3863C11.4239 25.372 11.4167 25.3503 11.4095 25.3216C11.4095 25.2928 11.4023 25.2641 11.4023 25.221C11.4023 25.1779 11.3951 25.1275 11.3951 25.0628C11.3951 24.9982 11.4023 24.9478 11.4023 24.9047C11.4023 24.8688 11.4095 24.8328 11.4095 24.8041C11.4167 24.7753 11.4239 24.7537 11.431 24.7395C11.4382 24.7251 11.4526 24.7035 11.4598 24.6963C11.4813 24.6747 11.503 24.6532 11.5317 24.646C11.5604 24.6316 11.5892 24.6244 11.6251 24.6244C11.6898 24.6244 11.7402 24.6388 11.7761 24.6748C11.8121 24.7107 11.8336 24.7538 11.848 24.8114H12.1068C12.0853 24.6748 12.0277 24.5669 11.9414 24.5023C11.8552 24.4302 11.7473 24.3943 11.6251 24.3943C11.5532 24.3943 11.4813 24.4087 11.4239 24.4303C11.3735 24.4519 11.316 24.4879 11.2729 24.531C11.2441 24.5669 11.2154 24.6029 11.1938 24.6388C11.1795 24.6748 11.1651 24.7107 11.1579 24.7538C11.1507 24.797 11.1436 24.8474 11.1436 24.8977V25.2355C11.1436 25.2858 11.1507 25.329 11.1579 25.3722C11.1651 25.4153 11.1796 25.4584 11.1938 25.4944C11.2155 25.5232 11.2442 25.5591 11.2729 25.595C11.316 25.6382 11.3736 25.6741 11.4239 25.6956C11.4814 25.7245 11.5532 25.7316 11.6251 25.7316C11.7473 25.7316 11.8553 25.6956 11.9414 25.631C12.0277 25.5591 12.0853 25.4584 12.1068 25.3146H11.848C11.8336 25.3719 11.8121 25.415 11.7761 25.451Z" fill="#CECECF"/>
<path d="M13.3015 24.8974C13.3015 24.8471 13.2943 24.7967 13.2871 24.7535C13.28 24.7105 13.2655 24.6745 13.244 24.6385C13.2297 24.6025 13.201 24.5665 13.1721 24.5307C13.129 24.4876 13.0787 24.4516 13.0212 24.4301C12.9637 24.4085 12.8989 24.3941 12.8199 24.3941C12.7408 24.3941 12.6761 24.4084 12.6186 24.4301C12.5611 24.4516 12.5108 24.4876 12.4676 24.5307C12.4317 24.5666 12.4101 24.6026 12.3885 24.6385C12.3741 24.6745 12.3597 24.7105 12.3526 24.7535C12.3454 24.7967 12.3382 24.8471 12.3382 24.8974C12.3382 24.9477 12.3311 24.998 12.3311 25.0628C12.3311 25.1274 12.3382 25.185 12.3382 25.2353C12.3382 25.2856 12.3454 25.3288 12.3526 25.372C12.3598 25.4151 12.3741 25.4583 12.3885 25.4942C12.4101 25.523 12.4316 25.5589 12.4676 25.5948C12.5107 25.638 12.5611 25.6739 12.6186 25.6955C12.6761 25.7243 12.7408 25.7315 12.8199 25.7315C12.899 25.7315 12.9638 25.7243 13.0212 25.6955C13.0787 25.6739 13.129 25.638 13.1721 25.5948C13.201 25.5589 13.2297 25.5229 13.244 25.4942C13.2656 25.4583 13.28 25.4151 13.2871 25.372C13.2943 25.3288 13.3015 25.2856 13.3015 25.2353C13.3015 25.185 13.3087 25.1275 13.3087 25.0628C13.3087 24.998 13.3015 24.9477 13.3015 24.8974ZM13.0427 25.221C13.0427 25.2641 13.0355 25.2928 13.0355 25.3215C13.0283 25.3503 13.0211 25.3719 13.0139 25.3862C13.0068 25.4006 12.9996 25.415 12.9852 25.4293C12.9636 25.451 12.9421 25.4724 12.9133 25.4796C12.8846 25.494 12.8557 25.5012 12.8198 25.5012C12.7839 25.5012 12.7552 25.494 12.7264 25.4796C12.6976 25.4724 12.676 25.4509 12.6544 25.4293C12.6401 25.415 12.6329 25.4006 12.6257 25.3862C12.6114 25.3719 12.6114 25.3502 12.6041 25.3215C12.5969 25.2927 12.5969 25.2641 12.5897 25.221V24.9046C12.5969 24.8687 12.5969 24.8326 12.6041 24.8039C12.6113 24.7751 12.6113 24.7535 12.6257 24.7393C12.6329 24.7249 12.6401 24.7105 12.6544 24.6961C12.676 24.6745 12.6975 24.6602 12.7264 24.6458C12.7552 24.6315 12.7839 24.6243 12.8198 24.6243C12.8557 24.6243 12.8846 24.6315 12.9133 24.6458C12.9421 24.6602 12.9637 24.6746 12.9852 24.6961C12.9996 24.7105 13.0068 24.7249 13.0139 24.7393C13.0211 24.7535 13.0283 24.7752 13.0355 24.8039C13.0355 24.8327 13.0427 24.8687 13.0427 24.9046C13.0498 24.9477 13.0498 24.998 13.0498 25.0627C13.0498 25.1274 13.0498 25.1778 13.0427 25.221Z" fill="#CECECF"/>
<path d="M14.3643 24.4084V25.2137L13.8395 24.4084H13.6094V25.7242H13.8682V24.9117L14.393 25.7242H14.623V24.4084H14.3643Z" fill="#CECECF"/>
<path d="M16.3856 25.221C16.3713 25.185 16.3497 25.149 16.3209 25.1202C16.3065 25.1059 16.2922 25.0915 16.2778 25.0843C16.2634 25.0699 16.2491 25.0628 16.2203 25.0484C16.3282 24.9837 16.3857 24.8974 16.3857 24.7679C16.3857 24.7105 16.3713 24.6601 16.357 24.617C16.3354 24.5738 16.3066 24.5379 16.2707 24.5021C16.242 24.4804 16.2204 24.4661 16.1844 24.4517C16.1772 24.4445 16.1629 24.4373 16.1485 24.4302C16.091 24.4158 16.0407 24.4086 15.9759 24.4086H15.4512V25.7244H15.9976C16.0622 25.7244 16.1198 25.71 16.163 25.6956C16.2133 25.674 16.2564 25.6524 16.2923 25.6165C16.3283 25.5877 16.3571 25.5445 16.3714 25.5014C16.393 25.4584 16.4003 25.4009 16.4003 25.3433C16.4 25.3 16.3928 25.2568 16.3856 25.221ZM15.7025 24.6385H15.9542C15.9686 24.6385 15.983 24.6385 15.9902 24.6457C16.0333 24.6457 16.0549 24.6529 16.0837 24.6745C16.1124 24.7033 16.1268 24.7393 16.1268 24.7896C16.1268 24.8327 16.1124 24.8688 16.0837 24.8974C16.0477 24.9261 16.0118 24.9405 15.9542 24.9405H15.7025V24.6385ZM16.098 25.451C16.0693 25.4797 16.0261 25.4941 15.9759 25.4941H15.7026V25.1706H15.9759C16.0262 25.1706 16.0693 25.185 16.098 25.2138C16.1269 25.2425 16.1484 25.2785 16.1484 25.3288C16.1483 25.3791 16.1268 25.4222 16.098 25.451Z" fill="#CECECF"/>
<path d="M17.2474 24.4084H17.0461L16.5645 25.7242H16.8305L16.9096 25.4869H17.3769L17.456 25.7242H17.722L17.2474 24.4084ZM16.9814 25.2712L17.154 24.7967L17.3122 25.2712H16.9814Z" fill="#CECECF"/>
<path d="M18.6852 24.4084V25.2137L18.1603 24.4084H17.9375V25.7242H18.1892V24.9117L18.714 25.7242H18.9441V24.4084H18.6852Z" fill="#CECECF"/>
<path d="M19.8927 24.926L20.324 24.4084H20.0149L19.5476 24.9764V24.4084H19.2959V25.7242H19.5476V25.3287L19.7201 25.1201L20.058 25.7241H20.3599L19.8927 24.926Z" fill="#CECECF"/>
<path d="M33.6258 16.1693C33.5899 16.2053 33.5395 16.2197 33.4748 16.2197C33.4388 16.2197 33.4101 16.2125 33.3814 16.198C33.3526 16.1908 33.331 16.1692 33.3095 16.1548C33.3023 16.1405 33.2879 16.126 33.2807 16.1046C33.2736 16.0902 33.2664 16.0685 33.2592 16.0399C33.2592 16.0111 33.252 15.9752 33.252 15.9392C33.252 15.8961 33.2448 15.8458 33.2448 15.7811C33.2448 15.7163 33.252 15.6661 33.252 15.6229C33.252 15.5797 33.2592 15.551 33.2592 15.5223C33.2664 15.4935 33.2736 15.472 33.2807 15.4576C33.2879 15.436 33.3023 15.4216 33.3095 15.4072C33.331 15.3858 33.3526 15.3713 33.3814 15.3569C33.4101 15.3498 33.4388 15.3427 33.4748 15.3427C33.5395 15.3427 33.5899 15.3569 33.6258 15.3929C33.6617 15.4289 33.6833 15.472 33.6977 15.5295H33.9565C33.9349 15.3858 33.8774 15.2851 33.7911 15.2132C33.7049 15.1486 33.597 15.1126 33.4748 15.1126C33.4029 15.1126 33.331 15.1269 33.2807 15.1486C33.2232 15.1701 33.1729 15.206 33.1225 15.2491C33.0938 15.2851 33.0651 15.321 33.0506 15.3569C33.0291 15.3858 33.0147 15.4288 33.0075 15.472C33.0003 15.5151 32.9932 15.5582 32.9932 15.6085V15.9536C32.9932 16.004 33.0003 16.0472 33.0075 16.0903C33.0147 16.1334 33.0291 16.1694 33.0506 16.2053C33.065 16.2413 33.0938 16.2772 33.1225 16.313C33.1729 16.3562 33.2232 16.3922 33.2807 16.4138C33.3311 16.4353 33.4029 16.4497 33.4748 16.4497C33.597 16.4497 33.7049 16.4138 33.7911 16.3419C33.8774 16.2772 33.9349 16.1693 33.9565 16.0327H33.6977C33.6833 16.0902 33.6617 16.1333 33.6258 16.1693Z" fill="#CECECF"/>
<path d="M34.9278 15.8674C34.9637 15.8602 34.9925 15.8457 35.0213 15.8242C35.0501 15.8025 35.0788 15.781 35.1004 15.7522C35.1219 15.7234 35.1364 15.6876 35.1507 15.6516C35.1579 15.63 35.1651 15.6012 35.1651 15.5725C35.1723 15.5581 35.1723 15.5365 35.1723 15.5222C35.1723 15.4719 35.1579 15.4143 35.1435 15.3712C35.1219 15.3209 35.0932 15.2778 35.0572 15.2417C35.0213 15.2058 34.9781 15.1771 34.9206 15.1556C34.8919 15.1412 34.8703 15.1339 34.8343 15.1267H34.8272C34.7984 15.1196 34.7697 15.1196 34.7409 15.1196H34.2305V16.4352H34.4821V15.9104H34.6691L34.9279 16.4352H35.2227L34.9278 15.8674ZM34.8632 15.6516C34.8272 15.6804 34.7841 15.702 34.7266 15.702H34.4821V15.3496H34.7266C34.7841 15.3496 34.8273 15.3639 34.8632 15.3998C34.8991 15.4287 34.9135 15.4719 34.9135 15.5222C34.9134 15.5797 34.8991 15.6157 34.8632 15.6516Z" fill="#CECECF"/>
<path d="M36.3514 15.3497V15.1196H35.4814V16.4353H36.3514V16.2053H35.7403V15.8889H36.258V15.6589H35.7403V15.3497H36.3514Z" fill="#CECECF"/>
<path d="M37.5956 15.5438C37.5956 15.5294 37.5884 15.515 37.5884 15.5079C37.5884 15.4719 37.574 15.4359 37.5668 15.4071C37.5525 15.3712 37.538 15.3425 37.5165 15.3138C37.4734 15.249 37.4158 15.1987 37.3511 15.1699C37.2865 15.1412 37.2145 15.1196 37.121 15.1196H36.6465V16.4353H37.121C37.2144 16.4353 37.2864 16.421 37.3511 16.3922C37.3871 16.3779 37.4158 16.3562 37.4446 16.3347C37.4734 16.313 37.4949 16.2844 37.5165 16.2484C37.538 16.2197 37.5524 16.1909 37.5668 16.1549C37.574 16.1261 37.5884 16.0903 37.5884 16.0544C37.5956 16.0184 37.5956 15.9752 37.6028 15.9321V15.6301C37.5956 15.6012 37.5956 15.5726 37.5956 15.5438ZM37.3439 15.9176C37.3439 15.9535 37.3367 15.9823 37.3367 16.0111C37.3296 16.0399 37.3296 16.0615 37.3224 16.0757C37.3152 16.0973 37.3007 16.1117 37.2936 16.126C37.2505 16.1836 37.1858 16.2052 37.0995 16.2052H36.9054V15.3496H37.0995C37.1858 15.3496 37.2505 15.3784 37.2936 15.4359C37.3008 15.4502 37.3152 15.4647 37.3224 15.4862C37.3296 15.5006 37.3296 15.5222 37.3367 15.5509C37.3367 15.5796 37.3439 15.6083 37.3439 15.6443V15.9176Z" fill="#CECECF"/>
<path d="M37.9102 15.1196V16.4353H38.1618V15.1196H37.9102Z" fill="#CECECF"/>
<path d="M38.4219 15.1196V15.3497H38.767V16.4353H39.0187V15.3497H39.3638V15.1196H38.4219Z" fill="#CECECF"/>
<path d="M40.6853 16.1693C40.6494 16.2053 40.5991 16.2197 40.5343 16.2197C40.4984 16.2197 40.4697 16.2125 40.4409 16.198C40.412 16.1908 40.3905 16.1692 40.3689 16.1548C40.3618 16.1405 40.3474 16.126 40.3402 16.1046C40.333 16.0902 40.3258 16.0686 40.3187 16.0399C40.3187 16.0111 40.3115 15.9752 40.3115 15.9392C40.3043 15.8961 40.3043 15.8458 40.3043 15.7811C40.3043 15.7163 40.3043 15.6661 40.3115 15.6229C40.3115 15.5797 40.3187 15.551 40.3187 15.5223C40.3258 15.4935 40.333 15.472 40.3402 15.4576C40.3474 15.436 40.3618 15.4216 40.3689 15.4072C40.3905 15.3858 40.412 15.3713 40.4409 15.3569C40.4696 15.3498 40.4983 15.3427 40.5343 15.3427C40.5991 15.3427 40.6493 15.3569 40.6853 15.393C40.7212 15.4289 40.7429 15.4721 40.7573 15.5295H41.0161C40.9946 15.3858 40.937 15.2851 40.8507 15.2132C40.7644 15.1486 40.6566 15.1126 40.5344 15.1126C40.4625 15.1126 40.3907 15.1269 40.3331 15.1486C40.2828 15.1701 40.2253 15.206 40.1821 15.2491C40.1462 15.2851 40.1247 15.321 40.103 15.3569C40.0886 15.3858 40.0743 15.4288 40.0671 15.472C40.0599 15.5151 40.0527 15.5582 40.0527 15.6085V15.9536C40.0527 16.004 40.0599 16.0472 40.0671 16.0903C40.0743 16.1334 40.0886 16.1694 40.103 16.2053C40.1246 16.2413 40.1461 16.2772 40.1821 16.313C40.2252 16.3562 40.2828 16.3922 40.3331 16.4138C40.3907 16.4353 40.4625 16.4497 40.5344 16.4497C40.6567 16.4497 40.7645 16.4138 40.8507 16.3419C40.937 16.2772 40.9946 16.1693 41.0161 16.0327H40.7573C40.7429 16.0902 40.7212 16.1333 40.6853 16.1693Z" fill="#CECECF"/>
<path d="M41.8226 15.1196H41.6213L41.1396 16.4353H41.4129L41.492 16.2053H41.9593L42.0384 16.4353H42.3044L41.8226 15.1196ZM41.5639 15.9895L41.7293 15.5079L41.8874 15.9895H41.5639Z" fill="#CECECF"/>
<path d="M43.2091 15.8674C43.245 15.8602 43.2737 15.8457 43.3025 15.8242C43.3313 15.8025 43.3601 15.781 43.3816 15.7522C43.4032 15.7234 43.4175 15.6876 43.432 15.6516C43.4464 15.6156 43.4535 15.5725 43.4535 15.5222C43.4535 15.4719 43.4464 15.4143 43.4248 15.3712C43.4033 15.3209 43.3744 15.2778 43.3385 15.2417C43.3026 15.2058 43.2594 15.1771 43.202 15.1556C43.1516 15.1339 43.0941 15.1196 43.0294 15.1196H42.5117V16.4352H42.7706V15.9104H42.9503L43.2092 16.4352H43.5039L43.2091 15.8674ZM43.1443 15.6516C43.1084 15.6804 43.0652 15.702 43.0078 15.702H42.7706V15.3496H43.0078C43.0653 15.3496 43.1084 15.3639 43.1443 15.3998C43.1803 15.4287 43.1947 15.4719 43.1947 15.5222C43.1947 15.5797 43.1803 15.6157 43.1443 15.6516Z" fill="#CECECF"/>
<path d="M44.7126 15.5079C44.7054 15.4719 44.6982 15.4359 44.6838 15.4071C44.6767 15.3712 44.6551 15.3425 44.6408 15.3138C44.5904 15.249 44.5329 15.1987 44.4682 15.1699C44.4106 15.1412 44.3316 15.1196 44.2382 15.1196H43.7637V16.4353H44.2382C44.3316 16.4353 44.4107 16.421 44.4682 16.3922C44.5328 16.3634 44.5904 16.313 44.6408 16.2484C44.6551 16.2197 44.6767 16.1909 44.6838 16.1549C44.6982 16.1261 44.7054 16.0903 44.7126 16.0544C44.7126 16.0184 44.7198 15.9752 44.7198 15.9321V15.6301C44.7198 15.5869 44.7126 15.5438 44.7126 15.5079ZM44.461 15.9176C44.461 15.9535 44.461 15.9823 44.4538 16.0111C44.4538 16.0399 44.4466 16.0615 44.4395 16.0757C44.4323 16.0973 44.4251 16.1117 44.4106 16.126C44.3675 16.1836 44.3028 16.2052 44.2165 16.2052H44.0224V15.3496H44.2165C44.3028 15.3496 44.3674 15.3784 44.4106 15.4359C44.425 15.4502 44.4322 15.4647 44.4395 15.4862C44.4466 15.5006 44.4538 15.5222 44.4538 15.5509C44.461 15.5796 44.461 15.6083 44.461 15.6443V15.9176Z" fill="#CECECF"/>
<path d="M44.8529 3.20538V8.27254C44.8529 8.47648 44.6861 8.64328 44.4821 8.64328H38.2409C38.0369 8.64328 37.8701 8.47648 37.8701 8.27254V3.20538C37.8701 3.00145 38.0369 2.83465 38.2409 2.83465H44.4821C44.686 2.83455 44.8529 3.00145 44.8529 3.20538Z" fill="#F7D072"/>
<path opacity="0.2" d="M43.4817 4.0621L44.5674 2.97645H44.2151L43.2804 3.91827L43.1367 4.0621L43.0289 4.16274L42.2883 4.90327H40.6779L40.5341 4.75944L39.9374 4.16274L39.7001 3.91827L38.7583 2.97645H38.406L39.3406 3.91827L39.4844 4.0621H37.9962V4.30648H39.736L40.1961 4.7738L40.3183 4.90327V5.19075H37.9961V5.44241H40.3183V6.32668H37.9961V6.57106H40.3183V6.86582H40.3327L39.8797 7.31168L39.7359 7.45551H37.9961V7.70718H39.4843L38.5497 8.64181H38.902L39.8366 7.70718L40.6778 6.8661H42.2882L44.0713 8.64191H44.4164L43.4817 7.70727H44.8548V7.45561H43.2372L42.6477 6.8661V6.57134H44.8549V6.32696H42.6477V5.44269H44.8549V5.19103H42.6477V4.90355L43.2372 4.30677H44.8548V4.06238H43.4817V4.0621ZM42.4033 6.61434H40.5628V5.14775H42.4033V6.61434Z" fill="white"/>
<path d="M40.5548 4.75945L40.7993 5.00384H41.9208L42.0215 4.90329L42.1653 4.75945H40.5548ZM40.5548 4.75945L40.7993 5.00384H41.9208L42.0215 4.90329L42.1653 4.75945H40.5548ZM40.5548 4.75945L40.7993 5.00384H41.9208L42.0215 4.90329L42.1653 4.75945H40.5548ZM40.5548 4.75945L40.7993 5.00384H41.9208L42.0215 4.90329L42.1653 4.75945H40.5548ZM42.0646 6.61436L41.9208 6.47062H40.7993L40.6627 6.61436H40.6555L40.5549 6.72219H42.1653L42.0646 6.61436ZM40.5548 4.75945L40.7993 5.00384H41.9208L42.0215 4.90329L42.1653 4.75945H40.5548ZM40.1953 4.75945V6.72219H42.5247V4.75945H40.1953ZM42.2802 6.47062H40.4397V5.00393H42.2802V6.47062ZM40.5548 4.75945L40.7993 5.00384H41.9208L42.0215 4.90329L42.1653 4.75945H40.5548ZM40.5548 4.75945L40.7993 5.00384H41.9208L42.0215 4.90329L42.1653 4.75945H40.5548ZM40.5548 4.75945L40.7993 5.00384H41.9208L42.0215 4.90329L42.1653 4.75945H40.5548ZM40.5548 4.75945L40.7993 5.00384H41.9208L42.0215 4.90329L42.1653 4.75945H40.5548ZM40.5548 4.75945L40.7993 5.00384H41.9208L42.0215 4.90329L42.1653 4.75945H40.5548ZM40.5548 4.75945L40.7993 5.00384H41.9208L42.0215 4.90329L42.1653 4.75945H40.5548Z" fill="#717070"/>
<path d="M39.7121 3.91582L39.9594 4.16304H37.8691V3.91582H39.7121Z" fill="#717070"/>
<path d="M44.851 3.91582V4.16304H42.7607L43.0079 3.91582H44.851Z" fill="#717070"/>
<path d="M40.4413 5.04883H37.8691V5.29605H40.4413V5.04883Z" fill="#717070"/>
<path d="M44.8515 5.04883H42.2793V5.29605H44.8515V5.04883Z" fill="#717070"/>
<path d="M40.4413 6.18192H37.8691V6.42914H40.4413V6.18192Z" fill="#717070"/>
<path d="M44.8515 6.18192H42.2793V6.42914H44.8515V6.18192Z" fill="#717070"/>
<path d="M39.9596 7.31452L39.7124 7.56174H37.8691V7.31452H39.9596Z" fill="#717070"/>
<path d="M44.8512 7.31452V7.56174H43.0079L42.7607 7.31452H44.8512Z" fill="#717070"/>
<path d="M40.8022 6.4726L38.6316 8.64314H38.2822L40.4528 6.4726H40.8022Z" fill="#717070"/>
<path d="M44.4408 2.83441L42.2703 5.00496H41.9209L44.0914 2.83441H44.4408Z" fill="#717070"/>
<path d="M40.8022 5.00496H40.4528L38.2822 2.83441H38.6317L40.8022 5.00496Z" fill="#717070"/>
<path d="M44.4409 8.64314H44.0914L42.1681 6.71982L42.0652 6.6169L41.9209 6.4726H42.2704L42.4048 6.60698L42.5176 6.71982L42.652 6.8542L43.1123 7.31452L43.2566 7.45883L43.3595 7.56174L43.5038 7.70605L44.4409 8.64314Z" fill="#717070"/>
<path d="M7.46686 5.04882C7.46686 4.27522 7.78591 3.57646 8.29906 3.07578C7.80216 2.59098 7.12325 2.29179 6.37422 2.29179C4.85149 2.29179 3.61719 3.52619 3.61719 5.04882C3.61719 6.57155 4.85159 7.80585 6.37422 7.80585C7.12335 7.80585 7.80226 7.50666 8.29906 7.02185C7.78591 6.52127 7.46686 5.82242 7.46686 5.04882Z" fill="#DC3B39"/>
<path d="M10.2246 2.29179C9.47552 2.29179 8.7967 2.59098 8.2998 3.07578C8.81296 3.57646 9.132 4.27522 9.132 5.04882C9.132 5.82242 8.81296 6.52118 8.2998 7.02185C8.7967 7.50666 9.47561 7.80585 10.2246 7.80585C11.7474 7.80585 12.9817 6.57145 12.9817 5.04882C12.9817 3.52619 11.7473 2.29179 10.2246 2.29179Z" fill="#E6AB2D"/>
<path d="M9.13118 5.04881C9.13118 4.27521 8.81214 3.57645 8.29899 3.07578C7.78584 3.57645 7.4668 4.27521 7.4668 5.04881C7.4668 5.82241 7.78584 6.52117 8.29899 7.02185C8.81214 6.52126 9.13118 5.82241 9.13118 5.04881Z" fill="#D67261"/>
<path d="M9.13065 5.04872C9.13065 4.99051 9.12829 4.93286 9.1247 4.8755L7.86705 3.61794C7.77491 3.76924 7.69676 3.92999 7.63477 4.09868L9.08444 5.54836C9.11421 5.38619 9.13065 5.21949 9.13065 5.04872Z" fill="#E6AB2D"/>
<path d="M7.49486 4.6587C7.47681 4.78618 7.4668 4.91631 7.4668 5.04871C7.4668 5.15456 7.47332 5.25889 7.48494 5.36161L8.68069 6.55736C8.77689 6.41079 8.85939 6.25457 8.92659 6.09033L7.49486 4.6587Z" fill="#E6AB2D"/>
<path opacity="0.2" d="M48.3856 17.5856H0V18.1896H48.3856V17.5856Z" fill="#040000"/>
<path opacity="0.2" d="M48.3859 1.5386V31.3321C48.3859 32.1805 47.6885 32.8778 46.8401 32.8778H7.75781L15.4506 25.1851L15.7022 24.9334L15.9898 24.6459L16.1839 24.4518L20.1885 20.4472L20.3969 20.2387V20.2315L20.5335 20.102L20.5479 20.0877L21.159 19.4694L21.3531 19.2825L22.446 18.1897L23.0499 17.5857L29.5133 11.1223L31.591 9.0447L40.5061 0.122381L40.6283 0H46.8401C47.6885 0 48.3859 0.690156 48.3859 1.5386Z" fill="#040000"/>
<defs>
<linearGradient id="paint0_linear_65_721" x1="24.1928" y1="0.122164" x2="24.1928" y2="33" gradientUnits="userSpaceOnUse">
<stop stop-color="#297BA4"/>
<stop offset="1" stop-color="#2F5F71"/>
</linearGradient>
</defs>
</svg>
