<svg width="9" height="10" viewBox="0 0 9 10" fill="none" xmlns="http://www.w3.org/2000/svg">
<path d="M4.19192 7.83838C4.22633 7.88834 4.27236 7.9292 4.32606 7.95742C4.37976 7.98564 4.43951 8.00039 4.50017 8.00039C4.56084 8.00039 4.62059 7.98564 4.67429 7.95742C4.72799 7.9292 4.77402 7.88834 4.80842 7.83838L8.18342 2.96338C8.22249 2.90715 8.2454 2.84129 8.24966 2.77295C8.25392 2.70462 8.23938 2.63642 8.20761 2.57577C8.17583 2.51512 8.12805 2.46434 8.06944 2.42895C8.01083 2.39355 7.94364 2.37489 7.87517 2.375H1.12517C1.05687 2.37528 0.989926 2.39418 0.931555 2.42966C0.873183 2.46514 0.825588 2.51586 0.793888 2.57637C0.762188 2.63688 0.747582 2.70489 0.751641 2.77307C0.7557 2.84126 0.77827 2.90706 0.816925 2.96338L4.19192 7.83838Z" fill="#979699"/>
</svg>
