<svg width="33" height="30" viewBox="0 0 33 30" fill="none" xmlns="http://www.w3.org/2000/svg">
<g clip-path="url(#clip0_44_205)">
<g clip-path="url(#clip1_44_205)">
<g clip-path="url(#clip2_44_205)">
<path fill-rule="evenodd" clip-rule="evenodd" d="M27.4424 14.2956L16.1924 27.7188L4.94238 14.2403C3.59707 12.3709 3.06738 11.1081 3.06738 9.37936C3.06738 6.1553 5.36895 3.25375 8.69238 3.22656C11.4261 3.20406 14.5255 5.99591 16.1924 8.1006C17.8152 6.06998 20.9586 3.22656 23.6924 3.22656C26.9277 3.22656 29.3174 6.1553 29.3174 9.37936C29.3174 11.1081 28.8983 12.4647 27.4424 14.2956ZM23.6924 1.46875C20.5677 1.46875 18.2033 3.3025 16.1924 5.21875C14.2771 3.18531 11.8171 1.46875 8.69238 1.46875C4.29176 1.46875 1.19238 5.25249 1.19238 9.37936C1.19238 11.5928 2.09895 13.1865 3.09176 14.6847L14.7477 28.6591C16.0555 30.0437 16.303 30.0437 17.6108 28.6591L29.293 14.6847C30.4611 13.1865 31.1924 11.5928 31.1924 9.37936C31.1924 5.25249 28.093 1.46875 23.6924 1.46875Z" fill="#EF3939"/>
</g>
</g>
</g>
<defs>
<clipPath id="clip0_44_205">
<rect width="31.8779" height="30" fill="white" transform="translate(0.901367)"/>
</clipPath>
<clipPath id="clip1_44_205">
<rect width="31.8779" height="30" fill="white" transform="translate(1)"/>
</clipPath>
<clipPath id="clip2_44_205">
<rect width="30" height="30" fill="white" transform="translate(1.19238 1)"/>
</clipPath>
</defs>
</svg>
