<svg width="33" height="30" viewBox="0 0 33 30" fill="none" xmlns="http://www.w3.org/2000/svg">
<g clip-path="url(#clip0_44_186)">
<path fill-rule="evenodd" clip-rule="evenodd" d="M27.25 14.2956L16 27.7188L4.75 14.2403C3.40469 12.3709 2.875 11.1081 2.875 9.37936C2.875 6.1553 5.17656 3.25375 8.5 3.22656C11.2338 3.20406 14.3331 5.99591 16 8.1006C17.6228 6.06998 20.7663 3.22656 23.5 3.22656C26.7353 3.22656 29.125 6.1553 29.125 9.37936C29.125 11.1081 28.7059 12.4647 27.25 14.2956ZM23.5 1.46875C20.3753 1.46875 18.0109 3.3025 16 5.21875C14.0847 3.18531 11.6247 1.46875 8.5 1.46875C4.09938 1.46875 1 5.25249 1 9.37936C1 11.5928 1.90656 13.1865 2.89938 14.6847L14.5553 28.6591C15.8631 30.0437 16.1106 30.0437 17.4184 28.6591L29.1006 14.6847C30.2687 13.1865 31 11.5928 31 9.37936C31 5.25249 27.9006 1.46875 23.5 1.46875Z" fill="#EF3939"/>
</g>
<defs>
<clipPath id="clip0_44_186">
<rect width="31.8779" height="30" fill="white" transform="translate(0.807617)"/>
</clipPath>
</defs>
</svg>
